<svg width="123" height="120" viewBox="0 0 123 120" fill="none" xmlns="http://www.w3.org/2000/svg">
<path d="M61.5615 0.462891C61.7074 0.462976 61.8746 0.53737 61.9258 0.711914L62.3037 2.00879C63.9189 7.73432 70.1621 31.6973 70.1621 60.0332C70.1621 82.6988 66.1702 102.555 63.7441 112.527L83.3779 61.5068L77.1777 5.14258H77.1748L77.1621 5.13965C76.5512 4.97829 76.1769 4.35764 76.3262 3.7373L76.3271 3.73438L76.3623 3.62305C76.5532 3.11716 77.0753 2.80692 77.6182 2.88086L77.7354 2.90234L77.7373 2.90332L77.8496 2.93848C78.3572 3.12845 78.6693 3.6482 78.5947 4.18945L78.5732 4.30566C78.4907 4.65715 78.2437 4.90462 77.9443 5.0459L83.9795 59.9531L100.167 17.8965C99.846 17.6177 99.6951 17.1757 99.8008 16.7432V16.7412L99.8975 16.7676L99.8018 16.7412C99.9541 16.1704 100.511 15.8083 101.093 15.8877L101.209 15.9092L101.212 15.9102L101.323 15.9453C101.867 16.1487 102.187 16.7307 102.047 17.3125V17.3154C101.903 17.8507 101.418 18.1772 100.889 18.1631L62.7451 117.304C102.385 71.5387 109.546 32.3567 110.323 27.2939L110.401 26.7441C110.418 26.5564 110.587 26.4053 110.774 26.4053C110.966 26.4053 111.126 26.5264 111.158 26.7158H111.157C118.447 65.3511 105.148 88.422 92.3994 101.084L91.793 101.679C81.0505 112.09 69.1472 117.063 64.123 118.835C95.1639 117.515 120.059 92.2524 120.647 61.1748C120.055 61.0006 119.697 60.3919 119.844 59.7822V59.7803L119.88 59.6689C120.05 59.2186 120.481 58.9235 120.957 58.916L120.872 58.8311L121.231 58.9258C121.842 59.0871 122.217 59.7078 122.067 60.3281L122.066 60.3301C121.972 60.6933 121.712 60.9538 121.396 61.0869C120.836 93.4813 94.1959 119.662 61.5459 119.662C28.8984 119.662 2.2821 93.5196 1.69531 61.1514C1.12724 60.9711 0.789406 60.3763 0.932617 59.7822L0.933594 59.7803L0.96875 59.6689C1.17313 59.1265 1.75831 58.8088 2.3418 58.9482H2.34375L2.45605 58.9844C2.99987 59.188 3.31989 59.77 3.17969 60.3516V60.3525C3.08544 60.7275 2.80372 60.9982 2.46484 61.123C3.02109 92.2311 27.9324 117.514 58.9902 118.835C54.1298 117.121 42.8323 112.422 32.376 102.683L31.3213 101.679C18.3936 89.1385 4.55023 65.9632 11.9561 26.7139C11.971 26.6267 12.0127 26.5454 12.0811 26.4873C12.1494 26.4293 12.2389 26.3997 12.3398 26.4053H12.3457C12.5303 26.4084 12.6949 26.5584 12.7119 26.7441H12.7129C12.7566 27.1468 18.0894 68.4793 60.3682 117.304L22.2246 18.1631C21.6963 18.1768 21.1987 17.8516 21.0664 17.3135V17.3125C20.9157 16.7312 21.2351 16.1384 21.79 15.9434L21.9043 15.9092C22.4874 15.7591 23.0833 16.0766 23.2793 16.6299L23.3135 16.7441L23.3418 16.9199C23.3759 17.3 23.2248 17.6558 22.9463 17.8965L39.1338 59.9512L45.1689 5.04688C44.8695 4.90483 44.6352 4.65604 44.542 4.30859L44.541 4.30762C44.3891 3.72557 44.7089 3.13165 45.2646 2.93652L45.3789 2.90234C46.0003 2.74262 46.6352 3.1137 46.7861 3.73535H46.7871C46.949 4.356 46.5751 4.99003 45.9502 5.13965L45.9385 5.14258H45.9365L39.7344 61.5049L59.3672 112.521C56.941 102.547 52.9522 82.6942 52.9521 60.0332C52.9521 27.6489 61.1066 0.976588 61.1875 0.711914L61.1885 0.709961L61.2148 0.649414C61.2877 0.519662 61.4331 0.462891 61.5615 0.462891ZM11.8447 32.3008C6.79729 67.3578 19.2949 88.622 31.292 100.536L31.8701 101.104L32.8945 102.079C42.9856 111.499 53.8667 116.16 58.8623 117.963C54.5686 114.996 45.4194 108.073 36.3828 97.3506L35.4629 96.2451C24.5026 82.919 11.9038 61.2718 11.8447 32.3008ZM111.313 32.2949C111.258 60.3493 99.4345 81.5367 88.7441 94.9512L87.6963 96.2451C78.378 107.598 68.7386 114.894 64.2979 117.962C69.4622 116.097 80.9087 111.168 91.2891 101.104L91.8672 100.536C103.865 88.6213 116.363 67.3556 111.313 32.2949ZM12.6162 30.457C12.1254 60.1193 24.9445 82.2297 36.0391 95.7441L36.9746 96.8682C46.147 107.75 55.4294 114.68 59.5518 117.501C24.5342 76.9578 14.9029 41.5826 12.6162 30.457ZM110.52 30.4561C108.233 41.572 98.6018 76.9575 63.5947 117.501C67.8566 114.584 77.6372 107.274 87.1084 95.7441L88.1641 94.4385C98.999 80.826 110.995 59.1826 110.52 30.4561ZM61.9648 116.471C63.9943 108.957 69.415 86.4026 69.415 60.0439C69.415 33.6851 63.9942 11.1302 61.9648 3.61719V116.471ZM61.1943 3.61914C59.1645 11.1341 53.7451 33.6873 53.7451 60.0439C53.7451 86.4004 59.1645 108.954 61.1943 116.469V3.61914Z" fill="#F5B57B" stroke="#F5B57B" stroke-width="0.2"/>
</svg>
