<svg width="127" height="111" viewBox="0 0 127 111" fill="none" xmlns="http://www.w3.org/2000/svg">
<mask id="path-1-outside-1_410_3417" maskUnits="userSpaceOnUse" x="0" y="0" width="127" height="111" fill="black">
<rect fill="white" width="127" height="111"/>
<path d="M63.1239 109.233H1.63889V110H125.587V109.233H63.8883V105.476L122.132 95.2309C122.408 95.875 123.065 96.3351 123.814 96.3198C124.823 96.3198 125.633 95.4916 125.618 94.4794C125.618 93.4672 124.792 92.6544 123.783 92.6697C122.79 92.6697 121.995 93.4825 121.979 94.4641L69.5903 103.681C76.0568 101.488 86.8954 97.2246 97.7493 90.2772C114.749 79.3729 125.771 65.708 125.878 65.57C125.985 65.4473 125.985 65.2633 125.908 65.1252C125.817 64.9872 125.648 64.9259 125.496 64.9565C125.327 65.0026 108.343 69.2968 91.344 80.2011C76.6989 89.5871 66.5176 101.013 63.8883 104.095V90.9827C68.719 90.6606 72.7548 84.2193 73.7943 75.4161C74.7115 75.3241 75.4453 74.5572 75.43 73.6063C75.43 72.5941 74.6046 71.7813 73.5956 71.7966C72.5867 71.7966 71.7764 72.6248 71.7917 73.637C71.7917 74.4345 72.3115 75.0786 73.0147 75.324C72.021 83.6058 68.2451 89.8478 63.8729 90.2005V66.5362C66.2883 66.4288 81.1475 65.4933 96.7862 59.1746C113.801 52.3039 125.755 41.4763 125.878 41.3689C126 41.2616 126.031 41.0929 125.969 40.9395C125.908 40.7861 125.801 40.7094 125.603 40.6941C125.45 40.6941 109.352 41.2002 92.3377 48.071C81.6825 52.3806 73.0147 58.2238 68.0005 62.0273L104.032 24.376L121.995 27.4433C122.087 28.3635 122.851 29.0997 123.799 29.0843C124.808 29.0843 125.618 28.2561 125.603 27.2439C125.603 26.2317 124.777 25.4189 123.768 25.4342C122.973 25.4342 122.331 25.9557 122.087 26.6765L104.674 23.7012L122.851 4.71453C123.126 4.88323 123.447 5.00593 123.799 5.00593C124.808 5.00593 125.618 4.17776 125.603 3.16555C125.603 2.15334 124.777 1.34051 123.768 1.35585C122.759 1.35585 121.949 2.18401 121.964 3.19623C121.964 3.5643 122.102 3.88637 122.301 4.17777L104.032 23.2564L97.0308 4.85258C97.6729 4.56118 98.1162 3.91703 98.1162 3.18088C98.1162 2.16866 97.2907 1.35584 96.2818 1.37117C95.2728 1.37117 94.4626 2.19934 94.4779 3.21156C94.4779 4.20843 95.2881 5.00594 96.2665 5.02128L103.451 23.8852L63.8729 65.2326V42.3351C65.0806 41.3996 73.4733 34.6055 79.0378 24.2226C85.0151 13.0576 85.5807 1.52455 85.596 1.40185C85.596 1.24849 85.5196 1.11044 85.3973 1.0491C85.2597 0.972413 85.1068 0.987756 84.9845 1.07978C84.8928 1.14112 75.6288 7.99657 69.6515 19.1616C66.3342 25.3576 64.6985 31.7069 63.8883 36.1545V4.94459C64.7138 4.76056 65.3252 4.05506 65.3252 3.18088C65.3252 2.16866 64.4997 1.35584 63.4908 1.37117C62.4818 1.37117 61.6716 2.19934 61.6869 3.21156C61.6869 4.0704 62.3137 4.76056 63.1239 4.94459V36.1545C62.3137 31.7069 60.6779 25.3576 57.3606 19.1616C51.3833 7.99657 42.1193 1.14112 42.0276 1.07978C41.9053 0.987756 41.7524 0.987749 41.6148 1.0491C41.4925 1.12578 41.4008 1.26382 41.4161 1.40185C41.4161 1.52455 41.997 13.0576 47.9743 24.2226C53.5388 34.6208 61.9315 41.3996 63.1239 42.3351V65.2632L23.5301 23.9006L30.7151 5.03661C31.6934 5.03661 32.5037 4.22378 32.5037 3.22691C32.5037 2.21469 31.7088 1.40184 30.6998 1.3865C29.6909 1.3865 28.8806 2.18401 28.8653 3.19623C28.8653 3.94772 29.3086 4.59185 29.9507 4.86791L22.9492 23.2718L4.68102 4.19309C4.87975 3.9017 5.01734 3.57963 5.01734 3.21156C5.01734 2.19934 4.22242 1.38651 3.21346 1.37117C2.20451 1.37117 1.39429 2.16866 1.37901 3.18088C1.37901 4.19309 2.17393 5.00594 3.18288 5.02128C3.53449 5.02128 3.85551 4.89859 4.13068 4.72988L22.3071 23.7165L4.89504 26.6918C4.65044 25.9863 3.99311 25.4649 3.21346 25.4496C2.20451 25.4496 1.39429 26.2471 1.37901 27.2593C1.37901 28.2715 2.17393 29.0843 3.18288 29.0997C4.13069 29.0997 4.89506 28.3788 4.98678 27.4586L22.9492 24.3913L58.9811 62.0426C53.9669 58.2391 45.299 52.3959 34.6439 48.0863C17.6293 41.2156 1.53188 40.7095 1.37901 40.7095C1.22613 40.7095 1.08853 40.8015 1.02738 40.9548C0.966235 41.1082 1.01212 41.2769 1.11913 41.3843C1.24142 41.4916 13.1807 52.3192 30.2106 59.19C45.9105 65.524 60.8003 66.4442 63.1392 66.5515V90.2159C58.7518 89.8938 54.9606 83.6365 53.9669 75.3394C54.6701 75.094 55.1898 74.4345 55.1898 73.6523C55.1898 72.6401 54.3949 71.8273 53.386 71.812C52.377 71.812 51.5668 72.6095 51.5515 73.6217C51.5515 74.5726 52.27 75.3394 53.1872 75.4314C54.2268 84.2499 58.2779 90.6913 63.1239 90.998V104.141C60.5404 101.105 50.3285 89.6484 35.6528 80.2317C18.6535 69.3274 1.66946 65.0332 1.50131 64.9872C1.34843 64.9565 1.18027 65.0179 1.08855 65.1559C0.996823 65.294 1.01212 65.478 1.11913 65.6007C1.22614 65.7387 12.2482 79.4036 29.2475 90.3079C40.1014 97.2707 50.9247 101.534 57.4065 103.712L5.01734 94.4947C5.01734 93.5132 4.20713 92.7004 3.21346 92.7004C2.20451 92.7004 1.39429 93.4979 1.37901 94.5101C1.37901 95.5223 2.17393 96.3351 3.18288 96.3505C3.93195 96.3505 4.57402 95.9057 4.86448 95.2615L63.1239 105.522V109.279V109.233ZM97.3366 89.6331C84.2355 98.0375 71.1802 102.47 65.8909 104.08L123.6 67.0576C119.931 71.2139 110.422 81.2286 97.3366 89.6331ZM91.7415 80.8605C104.843 72.4561 117.898 68.0238 123.187 66.4135L65.4781 103.421C69.147 99.2644 78.6557 89.2496 91.7415 80.8452V80.8605ZM96.5111 58.4845C83.41 63.7756 70.8898 65.2633 65.8603 65.662L123.569 42.3504C119.656 45.5558 109.612 53.1934 96.5111 58.4845ZM92.6281 48.8225C105.729 43.5313 118.249 42.0437 123.279 41.645L65.5698 64.9565C69.4834 61.7512 79.527 54.1136 92.6281 48.8225ZM78.3652 23.8852C73.8861 32.2436 67.5572 38.2403 64.7443 40.6634L84.6635 3.25756C84.2508 6.93834 82.8443 15.5115 78.3652 23.8852ZM70.3241 19.545C74.8186 11.1559 81.178 5.23598 84.0062 2.87415L64.0564 40.3413C64.4539 36.6452 65.8297 27.9648 70.3394 19.545H70.3241ZM56.688 19.545C61.1824 27.9494 62.5583 36.6452 62.971 40.3413L43.0213 2.87415C45.8341 5.23598 52.2088 11.1559 56.7033 19.545H56.688ZM48.6469 23.8852C44.1678 15.5115 42.7614 6.93834 42.3486 3.25756L62.2678 40.6634C59.4397 38.2403 53.1261 32.2436 48.6469 23.8852ZM61.4117 64.9565L3.70264 41.645C8.74741 42.0437 21.2523 43.5313 34.3534 48.8225C47.4545 54.1136 57.4982 61.7359 61.4117 64.9565ZM3.4122 42.3658L61.1213 65.6774C56.0765 65.2786 43.5716 63.7909 30.4705 58.4998C17.3694 53.2087 7.32572 45.5865 3.4122 42.3658ZM61.5035 103.451L3.79438 66.4442C9.08374 68.0392 22.1543 72.4868 35.2401 80.8912C48.3259 89.2803 57.8345 99.3104 61.5035 103.467V103.451ZM3.38162 67.0883L61.0907 104.111C55.786 102.516 42.7308 98.0681 29.645 89.6637C16.5592 81.2593 7.05054 71.2445 3.38162 67.0883Z"/>
</mask>
<path d="M63.1239 109.233H1.63889V110H125.587V109.233H63.8883V105.476L122.132 95.2309C122.408 95.875 123.065 96.3351 123.814 96.3198C124.823 96.3198 125.633 95.4916 125.618 94.4794C125.618 93.4672 124.792 92.6544 123.783 92.6697C122.79 92.6697 121.995 93.4825 121.979 94.4641L69.5903 103.681C76.0568 101.488 86.8954 97.2246 97.7493 90.2772C114.749 79.3729 125.771 65.708 125.878 65.57C125.985 65.4473 125.985 65.2633 125.908 65.1252C125.817 64.9872 125.648 64.9259 125.496 64.9565C125.327 65.0026 108.343 69.2968 91.344 80.2011C76.6989 89.5871 66.5176 101.013 63.8883 104.095V90.9827C68.719 90.6606 72.7548 84.2193 73.7943 75.4161C74.7115 75.3241 75.4453 74.5572 75.43 73.6063C75.43 72.5941 74.6046 71.7813 73.5956 71.7966C72.5867 71.7966 71.7764 72.6248 71.7917 73.637C71.7917 74.4345 72.3115 75.0786 73.0147 75.324C72.021 83.6058 68.2451 89.8478 63.8729 90.2005V66.5362C66.2883 66.4288 81.1475 65.4933 96.7862 59.1746C113.801 52.3039 125.755 41.4763 125.878 41.3689C126 41.2616 126.031 41.0929 125.969 40.9395C125.908 40.7861 125.801 40.7094 125.603 40.6941C125.45 40.6941 109.352 41.2002 92.3377 48.071C81.6825 52.3806 73.0147 58.2238 68.0005 62.0273L104.032 24.376L121.995 27.4433C122.087 28.3635 122.851 29.0997 123.799 29.0843C124.808 29.0843 125.618 28.2561 125.603 27.2439C125.603 26.2317 124.777 25.4189 123.768 25.4342C122.973 25.4342 122.331 25.9557 122.087 26.6765L104.674 23.7012L122.851 4.71453C123.126 4.88323 123.447 5.00593 123.799 5.00593C124.808 5.00593 125.618 4.17776 125.603 3.16555C125.603 2.15334 124.777 1.34051 123.768 1.35585C122.759 1.35585 121.949 2.18401 121.964 3.19623C121.964 3.5643 122.102 3.88637 122.301 4.17777L104.032 23.2564L97.0308 4.85258C97.6729 4.56118 98.1162 3.91703 98.1162 3.18088C98.1162 2.16866 97.2907 1.35584 96.2818 1.37117C95.2728 1.37117 94.4626 2.19934 94.4779 3.21156C94.4779 4.20843 95.2881 5.00594 96.2665 5.02128L103.451 23.8852L63.8729 65.2326V42.3351C65.0806 41.3996 73.4733 34.6055 79.0378 24.2226C85.0151 13.0576 85.5807 1.52455 85.596 1.40185C85.596 1.24849 85.5196 1.11044 85.3973 1.0491C85.2597 0.972413 85.1068 0.987756 84.9845 1.07978C84.8928 1.14112 75.6288 7.99657 69.6515 19.1616C66.3342 25.3576 64.6985 31.7069 63.8883 36.1545V4.94459C64.7138 4.76056 65.3252 4.05506 65.3252 3.18088C65.3252 2.16866 64.4997 1.35584 63.4908 1.37117C62.4818 1.37117 61.6716 2.19934 61.6869 3.21156C61.6869 4.0704 62.3137 4.76056 63.1239 4.94459V36.1545C62.3137 31.7069 60.6779 25.3576 57.3606 19.1616C51.3833 7.99657 42.1193 1.14112 42.0276 1.07978C41.9053 0.987756 41.7524 0.987749 41.6148 1.0491C41.4925 1.12578 41.4008 1.26382 41.4161 1.40185C41.4161 1.52455 41.997 13.0576 47.9743 24.2226C53.5388 34.6208 61.9315 41.3996 63.1239 42.3351V65.2632L23.5301 23.9006L30.7151 5.03661C31.6934 5.03661 32.5037 4.22378 32.5037 3.22691C32.5037 2.21469 31.7088 1.40184 30.6998 1.3865C29.6909 1.3865 28.8806 2.18401 28.8653 3.19623C28.8653 3.94772 29.3086 4.59185 29.9507 4.86791L22.9492 23.2718L4.68102 4.19309C4.87975 3.9017 5.01734 3.57963 5.01734 3.21156C5.01734 2.19934 4.22242 1.38651 3.21346 1.37117C2.20451 1.37117 1.39429 2.16866 1.37901 3.18088C1.37901 4.19309 2.17393 5.00594 3.18288 5.02128C3.53449 5.02128 3.85551 4.89859 4.13068 4.72988L22.3071 23.7165L4.89504 26.6918C4.65044 25.9863 3.99311 25.4649 3.21346 25.4496C2.20451 25.4496 1.39429 26.2471 1.37901 27.2593C1.37901 28.2715 2.17393 29.0843 3.18288 29.0997C4.13069 29.0997 4.89506 28.3788 4.98678 27.4586L22.9492 24.3913L58.9811 62.0426C53.9669 58.2391 45.299 52.3959 34.6439 48.0863C17.6293 41.2156 1.53188 40.7095 1.37901 40.7095C1.22613 40.7095 1.08853 40.8015 1.02738 40.9548C0.966235 41.1082 1.01212 41.2769 1.11913 41.3843C1.24142 41.4916 13.1807 52.3192 30.2106 59.19C45.9105 65.524 60.8003 66.4442 63.1392 66.5515V90.2159C58.7518 89.8938 54.9606 83.6365 53.9669 75.3394C54.6701 75.094 55.1898 74.4345 55.1898 73.6523C55.1898 72.6401 54.3949 71.8273 53.386 71.812C52.377 71.812 51.5668 72.6095 51.5515 73.6217C51.5515 74.5726 52.27 75.3394 53.1872 75.4314C54.2268 84.2499 58.2779 90.6913 63.1239 90.998V104.141C60.5404 101.105 50.3285 89.6484 35.6528 80.2317C18.6535 69.3274 1.66946 65.0332 1.50131 64.9872C1.34843 64.9565 1.18027 65.0179 1.08855 65.1559C0.996823 65.294 1.01212 65.478 1.11913 65.6007C1.22614 65.7387 12.2482 79.4036 29.2475 90.3079C40.1014 97.2707 50.9247 101.534 57.4065 103.712L5.01734 94.4947C5.01734 93.5132 4.20713 92.7004 3.21346 92.7004C2.20451 92.7004 1.39429 93.4979 1.37901 94.5101C1.37901 95.5223 2.17393 96.3351 3.18288 96.3505C3.93195 96.3505 4.57402 95.9057 4.86448 95.2615L63.1239 105.522V109.279V109.233ZM97.3366 89.6331C84.2355 98.0375 71.1802 102.47 65.8909 104.08L123.6 67.0576C119.931 71.2139 110.422 81.2286 97.3366 89.6331ZM91.7415 80.8605C104.843 72.4561 117.898 68.0238 123.187 66.4135L65.4781 103.421C69.147 99.2644 78.6557 89.2496 91.7415 80.8452V80.8605ZM96.5111 58.4845C83.41 63.7756 70.8898 65.2633 65.8603 65.662L123.569 42.3504C119.656 45.5558 109.612 53.1934 96.5111 58.4845ZM92.6281 48.8225C105.729 43.5313 118.249 42.0437 123.279 41.645L65.5698 64.9565C69.4834 61.7512 79.527 54.1136 92.6281 48.8225ZM78.3652 23.8852C73.8861 32.2436 67.5572 38.2403 64.7443 40.6634L84.6635 3.25756C84.2508 6.93834 82.8443 15.5115 78.3652 23.8852ZM70.3241 19.545C74.8186 11.1559 81.178 5.23598 84.0062 2.87415L64.0564 40.3413C64.4539 36.6452 65.8297 27.9648 70.3394 19.545H70.3241ZM56.688 19.545C61.1824 27.9494 62.5583 36.6452 62.971 40.3413L43.0213 2.87415C45.8341 5.23598 52.2088 11.1559 56.7033 19.545H56.688ZM48.6469 23.8852C44.1678 15.5115 42.7614 6.93834 42.3486 3.25756L62.2678 40.6634C59.4397 38.2403 53.1261 32.2436 48.6469 23.8852ZM61.4117 64.9565L3.70264 41.645C8.74741 42.0437 21.2523 43.5313 34.3534 48.8225C47.4545 54.1136 57.4982 61.7359 61.4117 64.9565ZM3.4122 42.3658L61.1213 65.6774C56.0765 65.2786 43.5716 63.7909 30.4705 58.4998C17.3694 53.2087 7.32572 45.5865 3.4122 42.3658ZM61.5035 103.451L3.79438 66.4442C9.08374 68.0392 22.1543 72.4868 35.2401 80.8912C48.3259 89.2803 57.8345 99.3104 61.5035 103.467V103.451ZM3.38162 67.0883L61.0907 104.111C55.786 102.516 42.7308 98.0681 29.645 89.6637C16.5592 81.2593 7.05054 71.2445 3.38162 67.0883Z" fill="#F5B57B"/>
<path d="M63.1239 109.233H1.63889V110H125.587V109.233H63.8883V105.476L122.132 95.2309C122.408 95.875 123.065 96.3351 123.814 96.3198C124.823 96.3198 125.633 95.4916 125.618 94.4794C125.618 93.4672 124.792 92.6544 123.783 92.6697C122.79 92.6697 121.995 93.4825 121.979 94.4641L69.5903 103.681C76.0568 101.488 86.8954 97.2246 97.7493 90.2772C114.749 79.3729 125.771 65.708 125.878 65.57C125.985 65.4473 125.985 65.2633 125.908 65.1252C125.817 64.9872 125.648 64.9259 125.496 64.9565C125.327 65.0026 108.343 69.2968 91.344 80.2011C76.6989 89.5871 66.5176 101.013 63.8883 104.095V90.9827C68.719 90.6606 72.7548 84.2193 73.7943 75.4161C74.7115 75.3241 75.4453 74.5572 75.43 73.6063C75.43 72.5941 74.6046 71.7813 73.5956 71.7966C72.5867 71.7966 71.7764 72.6248 71.7917 73.637C71.7917 74.4345 72.3115 75.0786 73.0147 75.324C72.021 83.6058 68.2451 89.8478 63.8729 90.2005V66.5362C66.2883 66.4288 81.1475 65.4933 96.7862 59.1746C113.801 52.3039 125.755 41.4763 125.878 41.3689C126 41.2616 126.031 41.0929 125.969 40.9395C125.908 40.7861 125.801 40.7094 125.603 40.6941C125.45 40.6941 109.352 41.2002 92.3377 48.071C81.6825 52.3806 73.0147 58.2238 68.0005 62.0273L104.032 24.376L121.995 27.4433C122.087 28.3635 122.851 29.0997 123.799 29.0843C124.808 29.0843 125.618 28.2561 125.603 27.2439C125.603 26.2317 124.777 25.4189 123.768 25.4342C122.973 25.4342 122.331 25.9557 122.087 26.6765L104.674 23.7012L122.851 4.71453C123.126 4.88323 123.447 5.00593 123.799 5.00593C124.808 5.00593 125.618 4.17776 125.603 3.16555C125.603 2.15334 124.777 1.34051 123.768 1.35585C122.759 1.35585 121.949 2.18401 121.964 3.19623C121.964 3.5643 122.102 3.88637 122.301 4.17777L104.032 23.2564L97.0308 4.85258C97.6729 4.56118 98.1162 3.91703 98.1162 3.18088C98.1162 2.16866 97.2907 1.35584 96.2818 1.37117C95.2728 1.37117 94.4626 2.19934 94.4779 3.21156C94.4779 4.20843 95.2881 5.00594 96.2665 5.02128L103.451 23.8852L63.8729 65.2326V42.3351C65.0806 41.3996 73.4733 34.6055 79.0378 24.2226C85.0151 13.0576 85.5807 1.52455 85.596 1.40185C85.596 1.24849 85.5196 1.11044 85.3973 1.0491C85.2597 0.972413 85.1068 0.987756 84.9845 1.07978C84.8928 1.14112 75.6288 7.99657 69.6515 19.1616C66.3342 25.3576 64.6985 31.7069 63.8883 36.1545V4.94459C64.7138 4.76056 65.3252 4.05506 65.3252 3.18088C65.3252 2.16866 64.4997 1.35584 63.4908 1.37117C62.4818 1.37117 61.6716 2.19934 61.6869 3.21156C61.6869 4.0704 62.3137 4.76056 63.1239 4.94459V36.1545C62.3137 31.7069 60.6779 25.3576 57.3606 19.1616C51.3833 7.99657 42.1193 1.14112 42.0276 1.07978C41.9053 0.987756 41.7524 0.987749 41.6148 1.0491C41.4925 1.12578 41.4008 1.26382 41.4161 1.40185C41.4161 1.52455 41.997 13.0576 47.9743 24.2226C53.5388 34.6208 61.9315 41.3996 63.1239 42.3351V65.2632L23.5301 23.9006L30.7151 5.03661C31.6934 5.03661 32.5037 4.22378 32.5037 3.22691C32.5037 2.21469 31.7088 1.40184 30.6998 1.3865C29.6909 1.3865 28.8806 2.18401 28.8653 3.19623C28.8653 3.94772 29.3086 4.59185 29.9507 4.86791L22.9492 23.2718L4.68102 4.19309C4.87975 3.9017 5.01734 3.57963 5.01734 3.21156C5.01734 2.19934 4.22242 1.38651 3.21346 1.37117C2.20451 1.37117 1.39429 2.16866 1.37901 3.18088C1.37901 4.19309 2.17393 5.00594 3.18288 5.02128C3.53449 5.02128 3.85551 4.89859 4.13068 4.72988L22.3071 23.7165L4.89504 26.6918C4.65044 25.9863 3.99311 25.4649 3.21346 25.4496C2.20451 25.4496 1.39429 26.2471 1.37901 27.2593C1.37901 28.2715 2.17393 29.0843 3.18288 29.0997C4.13069 29.0997 4.89506 28.3788 4.98678 27.4586L22.9492 24.3913L58.9811 62.0426C53.9669 58.2391 45.299 52.3959 34.6439 48.0863C17.6293 41.2156 1.53188 40.7095 1.37901 40.7095C1.22613 40.7095 1.08853 40.8015 1.02738 40.9548C0.966235 41.1082 1.01212 41.2769 1.11913 41.3843C1.24142 41.4916 13.1807 52.3192 30.2106 59.19C45.9105 65.524 60.8003 66.4442 63.1392 66.5515V90.2159C58.7518 89.8938 54.9606 83.6365 53.9669 75.3394C54.6701 75.094 55.1898 74.4345 55.1898 73.6523C55.1898 72.6401 54.3949 71.8273 53.386 71.812C52.377 71.812 51.5668 72.6095 51.5515 73.6217C51.5515 74.5726 52.27 75.3394 53.1872 75.4314C54.2268 84.2499 58.2779 90.6913 63.1239 90.998V104.141C60.5404 101.105 50.3285 89.6484 35.6528 80.2317C18.6535 69.3274 1.66946 65.0332 1.50131 64.9872C1.34843 64.9565 1.18027 65.0179 1.08855 65.1559C0.996823 65.294 1.01212 65.478 1.11913 65.6007C1.22614 65.7387 12.2482 79.4036 29.2475 90.3079C40.1014 97.2707 50.9247 101.534 57.4065 103.712L5.01734 94.4947C5.01734 93.5132 4.20713 92.7004 3.21346 92.7004C2.20451 92.7004 1.39429 93.4979 1.37901 94.5101C1.37901 95.5223 2.17393 96.3351 3.18288 96.3505C3.93195 96.3505 4.57402 95.9057 4.86448 95.2615L63.1239 105.522V109.279V109.233ZM97.3366 89.6331C84.2355 98.0375 71.1802 102.47 65.8909 104.08L123.6 67.0576C119.931 71.2139 110.422 81.2286 97.3366 89.6331ZM91.7415 80.8605C104.843 72.4561 117.898 68.0238 123.187 66.4135L65.4781 103.421C69.147 99.2644 78.6557 89.2496 91.7415 80.8452V80.8605ZM96.5111 58.4845C83.41 63.7756 70.8898 65.2633 65.8603 65.662L123.569 42.3504C119.656 45.5558 109.612 53.1934 96.5111 58.4845ZM92.6281 48.8225C105.729 43.5313 118.249 42.0437 123.279 41.645L65.5698 64.9565C69.4834 61.7512 79.527 54.1136 92.6281 48.8225ZM78.3652 23.8852C73.8861 32.2436 67.5572 38.2403 64.7443 40.6634L84.6635 3.25756C84.2508 6.93834 82.8443 15.5115 78.3652 23.8852ZM70.3241 19.545C74.8186 11.1559 81.178 5.23598 84.0062 2.87415L64.0564 40.3413C64.4539 36.6452 65.8297 27.9648 70.3394 19.545H70.3241ZM56.688 19.545C61.1824 27.9494 62.5583 36.6452 62.971 40.3413L43.0213 2.87415C45.8341 5.23598 52.2088 11.1559 56.7033 19.545H56.688ZM48.6469 23.8852C44.1678 15.5115 42.7614 6.93834 42.3486 3.25756L62.2678 40.6634C59.4397 38.2403 53.1261 32.2436 48.6469 23.8852ZM61.4117 64.9565L3.70264 41.645C8.74741 42.0437 21.2523 43.5313 34.3534 48.8225C47.4545 54.1136 57.4982 61.7359 61.4117 64.9565ZM3.4122 42.3658L61.1213 65.6774C56.0765 65.2786 43.5716 63.7909 30.4705 58.4998C17.3694 53.2087 7.32572 45.5865 3.4122 42.3658ZM61.5035 103.451L3.79438 66.4442C9.08374 68.0392 22.1543 72.4868 35.2401 80.8912C48.3259 89.2803 57.8345 99.3104 61.5035 103.467V103.451ZM3.38162 67.0883L61.0907 104.111C55.786 102.516 42.7308 98.0681 29.645 89.6637C16.5592 81.2593 7.05054 71.2445 3.38162 67.0883Z" stroke="#F5B57B" stroke-width="0.6" mask="url(#path-1-outside-1_410_3417)"/>
</svg>
