<svg width="125" height="31" viewBox="0 0 125 31" fill="none" xmlns="http://www.w3.org/2000/svg">
<path d="M0.352355 30.9847C0.352355 30.9847 0.382943 30.9847 0.398238 30.9847C0.566479 30.9694 17.0083 29.1198 34.0313 20.8501C48.7601 13.681 59.4205 3.88264 62.0818 1.29931V6.49655L62.0206 6.46598L49.6319 27.2855C49.4943 27.2549 49.3719 27.2091 49.2342 27.1938C48.2248 27.1938 47.4141 27.9887 47.3988 28.9975C47.3988 30.0064 48.1942 30.8166 49.2037 30.8319C50.2131 30.8471 51.0237 30.037 51.039 29.0281C51.039 28.4472 50.7484 27.9428 50.3355 27.6065L62.0971 7.84172V23.1583C61.2712 23.3417 60.6594 24.0449 60.6594 24.9162C60.6594 25.9251 61.4853 26.7352 62.4948 26.7199C63.5042 26.7046 64.3148 25.8945 64.2995 24.8856C64.2995 24.0143 63.6724 23.3417 62.8618 23.1583V7.82643L74.6387 27.6065C74.2105 27.9428 73.9199 28.4472 73.9352 29.0281C73.9352 30.037 74.7611 30.8471 75.7706 30.8319C76.78 30.8319 77.5906 30.0064 77.5753 28.9975C77.5753 27.9887 76.7494 27.1785 75.7399 27.1938C75.6023 27.1938 75.4647 27.2396 75.3423 27.2855L62.9536 6.46598L62.8771 6.51184V1.29931C65.5384 3.86736 76.1988 13.681 90.9429 20.8654C107.966 29.1504 124.408 30.9847 124.576 31C124.576 31 124.607 31 124.622 31C124.759 31 124.897 30.9236 124.958 30.786C125.035 30.6484 125.004 30.465 124.882 30.358C124.759 30.2357 113.181 18.4349 96.1584 10.1499C84.6873 4.57051 73.4916 1.91075 67.3432 0.7643H67.4044L121.012 11.4492C121.012 12.4428 121.838 13.253 122.848 13.2377C123.857 13.2377 124.668 12.4122 124.652 11.4034C124.652 10.3945 123.826 9.58432 122.817 9.5996C122.083 9.5996 121.456 10.0582 121.165 10.7002L71.3198 0.7643H124.622V0H0.612362V0.7643H53.685L3.83955 10.7002C3.56424 10.0582 2.93718 9.61489 2.18774 9.5996C1.17829 9.5996 0.36765 10.3945 0.352355 11.4034C0.352355 12.4122 1.14769 13.2224 2.15714 13.2377C3.1513 13.2377 3.97721 12.4428 3.9925 11.4492L57.6004 0.7643H57.6463C51.4978 1.91075 40.3021 4.57051 28.8311 10.1499C11.8081 18.4349 0.214721 30.2357 0.107658 30.358C0.000594877 30.4803 -0.0299992 30.6484 0.0311796 30.786C0.0923584 30.9236 0.230013 31 0.367665 31L0.352355 30.9847ZM33.6948 20.1469C20.5873 26.5212 7.86206 29.0434 2.72304 29.8688L60.4605 1.77318C56.6369 5.30424 46.8024 13.7727 33.6948 20.1469ZM64.4984 1.77318L122.236 29.8688C117.097 29.0434 104.356 26.5212 91.2641 20.1469C78.1565 13.7727 68.322 5.30424 64.4984 1.77318ZM122.572 29.1963L64.8348 1.10059C69.9739 1.92603 82.7144 4.44823 95.8066 10.8225C108.914 17.1967 118.749 25.6652 122.572 29.1963ZM29.1523 10.8225C42.2598 4.44823 54.985 1.92603 60.1241 1.10059L2.38655 29.1963C6.21023 25.6652 16.0447 17.1967 29.1523 10.8225Z" fill="#F5B57B"/>
</svg>
