<svg width="12" height="15" viewBox="0 0 12 15" fill="none" xmlns="http://www.w3.org/2000/svg">
<path d="M4.23116 0L3.52597 0.728081H0V2.18424H0.705193V13.1055C0.705193 13.4857 0.840117 13.8733 1.106 14.1478C1.37188 14.4223 1.74731 14.5616 2.11558 14.5616H9.16751C9.53578 14.5616 9.91122 14.4223 10.1771 14.1478C10.443 13.8733 10.5779 13.4857 10.5779 13.1055V2.18424H11.2831V0.728081H7.75713L7.05193 0H4.23116ZM2.11558 2.18424H9.16751V13.1055H2.11558V2.18424ZM3.52597 3.6404V11.6493H4.93635V3.6404H3.52597ZM6.34674 3.6404V11.6493H7.75713V3.6404H6.34674Z" fill="#FFFBFA"/>
</svg>
