<svg width="148" height="197" viewBox="0 0 148 197" fill="none" xmlns="http://www.w3.org/2000/svg">
<mask id="path-1-outside-1_534_8752" maskUnits="userSpaceOnUse" x="0" y="0" width="148" height="197" fill="black">
<rect fill="white" width="148" height="197"/>
<path d="M85.2671 192.591C84.3494 192.352 83.3976 192.914 83.1767 193.851C82.9388 194.77 83.4996 195.724 84.4344 195.945C85.3521 196.184 86.3039 195.622 86.5248 194.685C86.7628 193.766 86.2019 192.812 85.2671 192.591Z"/>
<path d="M110.948 192.591C110.03 192.352 109.079 192.914 108.858 193.851C108.62 194.77 109.181 195.724 110.115 195.945C111.033 196.184 111.985 195.622 112.206 194.685C112.444 193.766 111.883 192.812 110.948 192.591Z"/>
<path d="M128.181 178.015C127.264 177.777 126.312 178.339 126.091 179.275C125.853 180.195 126.414 181.148 127.348 181.37C128.266 181.608 129.218 181.046 129.439 180.109C129.677 179.19 129.116 178.236 128.181 178.015Z"/>
<path d="M145.688 27.8576C144.77 27.6192 143.818 28.1812 143.597 29.1178C143.512 29.4413 143.563 29.7478 143.648 30.0373L80.8151 64.6903L144.923 4.29018L144.345 3.67715L78.5037 65.695V41.2761C94.1737 40.9866 107.566 24.9798 111.186 2.11053L110.354 1.9743C107.005 23.1578 95.1935 38.3472 81.0701 40.2374C86.4577 36.3549 90.4687 22.119 90.8596 4.39235C91.4714 4.23909 91.9813 3.79635 92.1343 3.14926C92.3722 2.22972 91.8113 1.27613 90.8766 1.05476C89.9588 0.816357 89.007 1.3783 88.7861 2.31487C88.5652 3.23441 89.109 4.15395 90.0098 4.39235C89.5679 24.2646 84.4522 40.1352 78.2658 40.4247C78.1978 40.4247 78.1468 40.4247 78.0788 40.4247C78.0108 40.4247 77.9599 40.4247 77.8919 40.4247C71.4845 40.1182 66.2158 23.0897 66.1139 2.17864H65.2641C65.3491 20.927 69.479 36.1846 75.0876 40.2203C60.9642 38.3302 49.1522 23.1407 45.804 1.95727L44.9712 2.0935C48.5743 24.9628 61.9839 40.9696 77.6539 41.2591V65.678L11.8126 3.66012L11.2348 4.27315L75.3425 64.6733L11.2518 29.3391L10.8439 30.0884L77.6539 66.9381V113.017L60.3353 74.3114L59.5535 74.669L76.8721 113.341L25.4942 67.0062L24.9333 67.6363L77.6539 115.197V143.43C72.3683 142.953 66.1818 133.588 65.0771 120.135C65.8589 119.812 66.3348 118.977 66.1139 118.143C65.8759 117.223 64.9412 116.661 64.0234 116.883C63.1056 117.104 62.5278 118.058 62.7657 118.977C62.9527 119.692 63.5475 120.186 64.2273 120.271C65.0771 129.961 69.1901 140.161 74.6457 143.311C53.2821 141.421 33.6691 122.042 27.2107 95.8355L26.3779 96.0398C32.1905 119.607 48.5403 137.743 67.3375 142.868C44.2574 140.28 23.4887 129.518 11.5237 113.477L10.8439 113.988C24.7294 132.6 50.3079 144.196 77.6539 144.316V195.997H78.5037V144.316C105.85 144.196 131.428 132.6 145.314 113.988L144.634 113.477C132.669 129.518 111.9 140.28 88.8201 142.868C107.617 137.743 123.967 119.624 129.78 96.0398L128.947 95.8355C122.489 122.042 102.876 141.404 81.5119 143.311C87.2055 140.007 91.4544 129.041 92.0323 118.994L91.1825 118.943C90.3667 133.043 83.9423 142.936 78.5037 143.43V115.197L131.224 67.6363L130.663 67.0062L79.2855 113.341L96.6041 74.669L95.8223 74.3114L78.5037 113.017V66.9381L144.09 30.7695C144.294 30.9739 144.549 31.1441 144.855 31.2123C145.773 31.4507 146.724 30.8887 146.945 29.9522C147.183 29.0326 146.622 28.079 145.688 27.8576Z"/>
<path d="M124.731 157.461C123.813 157.223 122.861 157.785 122.64 158.721C122.402 159.641 122.963 160.594 123.898 160.816C124.833 161.037 125.767 160.492 125.988 159.556C126.209 158.619 125.665 157.682 124.731 157.461Z"/>
<path d="M92.1511 192.591C91.2334 192.352 90.2816 192.914 90.0607 193.851C89.8397 194.787 90.3836 195.724 91.3183 195.945C92.2361 196.184 93.1879 195.622 93.4088 194.685C93.6298 193.749 93.0859 192.812 92.1511 192.591Z"/>
<path d="M94.8355 153.987C93.9177 153.749 92.966 154.311 92.7451 155.247C92.5071 156.167 93.068 157.12 94.0027 157.342C94.9205 157.58 95.8723 157.018 96.0932 156.082C96.3311 155.162 95.7703 154.208 94.8355 153.987Z"/>
<path d="M65.2811 192.591C64.3634 192.829 63.8025 193.766 64.0234 194.685C64.2614 195.605 65.1961 196.167 66.1139 195.945C67.0317 195.707 67.5925 194.77 67.3716 193.851C67.1506 192.931 66.1989 192.369 65.2811 192.591Z"/>
<path d="M61.321 185.932C60.4032 186.171 59.8424 187.107 60.0633 188.027C60.2843 188.946 61.236 189.508 62.1538 189.287C63.0715 189.066 63.6324 188.112 63.4115 187.192C63.1905 186.273 62.2388 185.711 61.321 185.932Z"/>
<path d="M48.607 113.681C49.5248 113.443 50.1026 112.506 49.8647 111.587C49.6268 110.667 48.692 110.105 47.7742 110.327C46.8565 110.565 46.2956 111.502 46.5165 112.421C46.7545 113.341 47.6892 113.903 48.607 113.681Z"/>
<path d="M46.8909 63.3108C47.8086 63.0724 48.3695 62.1359 48.1485 61.2163C47.9276 60.2968 46.9758 59.7348 46.0581 59.9562C45.1403 60.1776 44.5794 61.1312 44.8004 62.0507C45.0213 62.9703 45.9731 63.5322 46.8909 63.3108Z"/>
<path d="M2.31131 192.591C1.39354 192.829 0.815689 193.766 1.05363 194.685C1.29157 195.605 2.22632 196.167 3.14409 195.945C4.06186 195.707 4.62273 194.77 4.40178 193.851C4.16384 192.931 3.22907 192.369 2.31131 192.591Z"/>
<path d="M32.3774 192.591C31.4596 192.829 30.8818 193.766 31.1197 194.685C31.3577 195.605 32.2924 196.167 33.2102 195.945C34.128 195.707 34.7058 194.77 34.4679 193.851C34.2299 192.931 33.2952 192.369 32.3774 192.591Z"/>
<path d="M27.0906 173.196C26.1728 173.434 25.612 174.371 25.8329 175.29C26.0539 176.21 27.0056 176.772 27.9234 176.55C28.8412 176.312 29.402 175.376 29.1811 174.456C28.9601 173.536 28.0084 172.974 27.0906 173.196Z"/>
<path d="M49.5092 155.435C48.5914 155.673 48.0136 156.609 48.2515 157.529C48.4895 158.449 49.4242 159.028 50.342 158.789C51.2598 158.551 51.8376 157.614 51.5997 156.695C51.3617 155.775 50.427 155.196 49.5092 155.435Z"/>
</mask>
<path d="M85.2671 192.591C84.3494 192.352 83.3976 192.914 83.1767 193.851C82.9388 194.77 83.4996 195.724 84.4344 195.945C85.3521 196.184 86.3039 195.622 86.5248 194.685C86.7628 193.766 86.2019 192.812 85.2671 192.591Z" fill="#F5B57B"/>
<path d="M110.948 192.591C110.03 192.352 109.079 192.914 108.858 193.851C108.62 194.77 109.181 195.724 110.115 195.945C111.033 196.184 111.985 195.622 112.206 194.685C112.444 193.766 111.883 192.812 110.948 192.591Z" fill="#F5B57B"/>
<path d="M128.181 178.015C127.264 177.777 126.312 178.339 126.091 179.275C125.853 180.195 126.414 181.148 127.348 181.37C128.266 181.608 129.218 181.046 129.439 180.109C129.677 179.19 129.116 178.236 128.181 178.015Z" fill="#F5B57B"/>
<path d="M145.688 27.8576C144.77 27.6192 143.818 28.1812 143.597 29.1178C143.512 29.4413 143.563 29.7478 143.648 30.0373L80.8151 64.6903L144.923 4.29018L144.345 3.67715L78.5037 65.695V41.2761C94.1737 40.9866 107.566 24.9798 111.186 2.11053L110.354 1.9743C107.005 23.1578 95.1935 38.3472 81.0701 40.2374C86.4577 36.3549 90.4687 22.119 90.8596 4.39235C91.4714 4.23909 91.9813 3.79635 92.1343 3.14926C92.3722 2.22972 91.8113 1.27613 90.8766 1.05476C89.9588 0.816357 89.007 1.3783 88.7861 2.31487C88.5652 3.23441 89.109 4.15395 90.0098 4.39235C89.5679 24.2646 84.4522 40.1352 78.2658 40.4247C78.1978 40.4247 78.1468 40.4247 78.0788 40.4247C78.0108 40.4247 77.9599 40.4247 77.8919 40.4247C71.4845 40.1182 66.2158 23.0897 66.1139 2.17864H65.2641C65.3491 20.927 69.479 36.1846 75.0876 40.2203C60.9642 38.3302 49.1522 23.1407 45.804 1.95727L44.9712 2.0935C48.5743 24.9628 61.9839 40.9696 77.6539 41.2591V65.678L11.8126 3.66012L11.2348 4.27315L75.3425 64.6733L11.2518 29.3391L10.8439 30.0884L77.6539 66.9381V113.017L60.3353 74.3114L59.5535 74.669L76.8721 113.341L25.4942 67.0062L24.9333 67.6363L77.6539 115.197V143.43C72.3683 142.953 66.1818 133.588 65.0771 120.135C65.8589 119.812 66.3348 118.977 66.1139 118.143C65.8759 117.223 64.9412 116.661 64.0234 116.883C63.1056 117.104 62.5278 118.058 62.7657 118.977C62.9527 119.692 63.5475 120.186 64.2273 120.271C65.0771 129.961 69.1901 140.161 74.6457 143.311C53.2821 141.421 33.6691 122.042 27.2107 95.8355L26.3779 96.0398C32.1905 119.607 48.5403 137.743 67.3375 142.868C44.2574 140.28 23.4887 129.518 11.5237 113.477L10.8439 113.988C24.7294 132.6 50.3079 144.196 77.6539 144.316V195.997H78.5037V144.316C105.85 144.196 131.428 132.6 145.314 113.988L144.634 113.477C132.669 129.518 111.9 140.28 88.8201 142.868C107.617 137.743 123.967 119.624 129.78 96.0398L128.947 95.8355C122.489 122.042 102.876 141.404 81.5119 143.311C87.2055 140.007 91.4544 129.041 92.0323 118.994L91.1825 118.943C90.3667 133.043 83.9423 142.936 78.5037 143.43V115.197L131.224 67.6363L130.663 67.0062L79.2855 113.341L96.6041 74.669L95.8223 74.3114L78.5037 113.017V66.9381L144.09 30.7695C144.294 30.9739 144.549 31.1441 144.855 31.2123C145.773 31.4507 146.724 30.8887 146.945 29.9522C147.183 29.0326 146.622 28.079 145.688 27.8576Z" fill="#F5B57B"/>
<path d="M124.731 157.461C123.813 157.223 122.861 157.785 122.64 158.721C122.402 159.641 122.963 160.594 123.898 160.816C124.833 161.037 125.767 160.492 125.988 159.556C126.209 158.619 125.665 157.682 124.731 157.461Z" fill="#F5B57B"/>
<path d="M92.1511 192.591C91.2334 192.352 90.2816 192.914 90.0607 193.851C89.8397 194.787 90.3836 195.724 91.3183 195.945C92.2361 196.184 93.1879 195.622 93.4088 194.685C93.6298 193.749 93.0859 192.812 92.1511 192.591Z" fill="#F5B57B"/>
<path d="M94.8355 153.987C93.9177 153.749 92.966 154.311 92.7451 155.247C92.5071 156.167 93.068 157.12 94.0027 157.342C94.9205 157.58 95.8723 157.018 96.0932 156.082C96.3311 155.162 95.7703 154.208 94.8355 153.987Z" fill="#F5B57B"/>
<path d="M65.2811 192.591C64.3634 192.829 63.8025 193.766 64.0234 194.685C64.2614 195.605 65.1961 196.167 66.1139 195.945C67.0317 195.707 67.5925 194.77 67.3716 193.851C67.1506 192.931 66.1989 192.369 65.2811 192.591Z" fill="#F5B57B"/>
<path d="M61.321 185.932C60.4032 186.171 59.8424 187.107 60.0633 188.027C60.2843 188.946 61.236 189.508 62.1538 189.287C63.0715 189.066 63.6324 188.112 63.4115 187.192C63.1905 186.273 62.2388 185.711 61.321 185.932Z" fill="#F5B57B"/>
<path d="M48.607 113.681C49.5248 113.443 50.1026 112.506 49.8647 111.587C49.6268 110.667 48.692 110.105 47.7742 110.327C46.8565 110.565 46.2956 111.502 46.5165 112.421C46.7545 113.341 47.6892 113.903 48.607 113.681Z" fill="#F5B57B"/>
<path d="M46.8909 63.3108C47.8086 63.0724 48.3695 62.1359 48.1485 61.2163C47.9276 60.2968 46.9758 59.7348 46.0581 59.9562C45.1403 60.1776 44.5794 61.1312 44.8004 62.0507C45.0213 62.9703 45.9731 63.5322 46.8909 63.3108Z" fill="#F5B57B"/>
<path d="M2.31131 192.591C1.39354 192.829 0.815689 193.766 1.05363 194.685C1.29157 195.605 2.22632 196.167 3.14409 195.945C4.06186 195.707 4.62273 194.77 4.40178 193.851C4.16384 192.931 3.22907 192.369 2.31131 192.591Z" fill="#F5B57B"/>
<path d="M32.3774 192.591C31.4596 192.829 30.8818 193.766 31.1197 194.685C31.3577 195.605 32.2924 196.167 33.2102 195.945C34.128 195.707 34.7058 194.77 34.4679 193.851C34.2299 192.931 33.2952 192.369 32.3774 192.591Z" fill="#F5B57B"/>
<path d="M27.0906 173.196C26.1728 173.434 25.612 174.371 25.8329 175.29C26.0539 176.21 27.0056 176.772 27.9234 176.55C28.8412 176.312 29.402 175.376 29.1811 174.456C28.9601 173.536 28.0084 172.974 27.0906 173.196Z" fill="#F5B57B"/>
<path d="M49.5092 155.435C48.5914 155.673 48.0136 156.609 48.2515 157.529C48.4895 158.449 49.4242 159.028 50.342 158.789C51.2598 158.551 51.8376 157.614 51.5997 156.695C51.3617 155.775 50.427 155.196 49.5092 155.435Z" fill="#F5B57B"/>
<path d="M85.2671 192.591C84.3494 192.352 83.3976 192.914 83.1767 193.851C82.9388 194.77 83.4996 195.724 84.4344 195.945C85.3521 196.184 86.3039 195.622 86.5248 194.685C86.7628 193.766 86.2019 192.812 85.2671 192.591Z" stroke="#F5B57B" stroke-width="0.4" mask="url(#path-1-outside-1_534_8752)"/>
<path d="M110.948 192.591C110.03 192.352 109.079 192.914 108.858 193.851C108.62 194.77 109.181 195.724 110.115 195.945C111.033 196.184 111.985 195.622 112.206 194.685C112.444 193.766 111.883 192.812 110.948 192.591Z" stroke="#F5B57B" stroke-width="0.4" mask="url(#path-1-outside-1_534_8752)"/>
<path d="M128.181 178.015C127.264 177.777 126.312 178.339 126.091 179.275C125.853 180.195 126.414 181.148 127.348 181.37C128.266 181.608 129.218 181.046 129.439 180.109C129.677 179.19 129.116 178.236 128.181 178.015Z" stroke="#F5B57B" stroke-width="0.4" mask="url(#path-1-outside-1_534_8752)"/>
<path d="M145.688 27.8576C144.77 27.6192 143.818 28.1812 143.597 29.1178C143.512 29.4413 143.563 29.7478 143.648 30.0373L80.8151 64.6903L144.923 4.29018L144.345 3.67715L78.5037 65.695V41.2761C94.1737 40.9866 107.566 24.9798 111.186 2.11053L110.354 1.9743C107.005 23.1578 95.1935 38.3472 81.0701 40.2374C86.4577 36.3549 90.4687 22.119 90.8596 4.39235C91.4714 4.23909 91.9813 3.79635 92.1343 3.14926C92.3722 2.22972 91.8113 1.27613 90.8766 1.05476C89.9588 0.816357 89.007 1.3783 88.7861 2.31487C88.5652 3.23441 89.109 4.15395 90.0098 4.39235C89.5679 24.2646 84.4522 40.1352 78.2658 40.4247C78.1978 40.4247 78.1468 40.4247 78.0788 40.4247C78.0108 40.4247 77.9599 40.4247 77.8919 40.4247C71.4845 40.1182 66.2158 23.0897 66.1139 2.17864H65.2641C65.3491 20.927 69.479 36.1846 75.0876 40.2203C60.9642 38.3302 49.1522 23.1407 45.804 1.95727L44.9712 2.0935C48.5743 24.9628 61.9839 40.9696 77.6539 41.2591V65.678L11.8126 3.66012L11.2348 4.27315L75.3425 64.6733L11.2518 29.3391L10.8439 30.0884L77.6539 66.9381V113.017L60.3353 74.3114L59.5535 74.669L76.8721 113.341L25.4942 67.0062L24.9333 67.6363L77.6539 115.197V143.43C72.3683 142.953 66.1818 133.588 65.0771 120.135C65.8589 119.812 66.3348 118.977 66.1139 118.143C65.8759 117.223 64.9412 116.661 64.0234 116.883C63.1056 117.104 62.5278 118.058 62.7657 118.977C62.9527 119.692 63.5475 120.186 64.2273 120.271C65.0771 129.961 69.1901 140.161 74.6457 143.311C53.2821 141.421 33.6691 122.042 27.2107 95.8355L26.3779 96.0398C32.1905 119.607 48.5403 137.743 67.3375 142.868C44.2574 140.28 23.4887 129.518 11.5237 113.477L10.8439 113.988C24.7294 132.6 50.3079 144.196 77.6539 144.316V195.997H78.5037V144.316C105.85 144.196 131.428 132.6 145.314 113.988L144.634 113.477C132.669 129.518 111.9 140.28 88.8201 142.868C107.617 137.743 123.967 119.624 129.78 96.0398L128.947 95.8355C122.489 122.042 102.876 141.404 81.5119 143.311C87.2055 140.007 91.4544 129.041 92.0323 118.994L91.1825 118.943C90.3667 133.043 83.9423 142.936 78.5037 143.43V115.197L131.224 67.6363L130.663 67.0062L79.2855 113.341L96.6041 74.669L95.8223 74.3114L78.5037 113.017V66.9381L144.09 30.7695C144.294 30.9739 144.549 31.1441 144.855 31.2123C145.773 31.4507 146.724 30.8887 146.945 29.9522C147.183 29.0326 146.622 28.079 145.688 27.8576Z" stroke="#F5B57B" stroke-width="0.4" mask="url(#path-1-outside-1_534_8752)"/>
<path d="M124.731 157.461C123.813 157.223 122.861 157.785 122.64 158.721C122.402 159.641 122.963 160.594 123.898 160.816C124.833 161.037 125.767 160.492 125.988 159.556C126.209 158.619 125.665 157.682 124.731 157.461Z" stroke="#F5B57B" stroke-width="0.4" mask="url(#path-1-outside-1_534_8752)"/>
<path d="M92.1511 192.591C91.2334 192.352 90.2816 192.914 90.0607 193.851C89.8397 194.787 90.3836 195.724 91.3183 195.945C92.2361 196.184 93.1879 195.622 93.4088 194.685C93.6298 193.749 93.0859 192.812 92.1511 192.591Z" stroke="#F5B57B" stroke-width="0.4" mask="url(#path-1-outside-1_534_8752)"/>
<path d="M94.8355 153.987C93.9177 153.749 92.966 154.311 92.7451 155.247C92.5071 156.167 93.068 157.12 94.0027 157.342C94.9205 157.58 95.8723 157.018 96.0932 156.082C96.3311 155.162 95.7703 154.208 94.8355 153.987Z" stroke="#F5B57B" stroke-width="0.4" mask="url(#path-1-outside-1_534_8752)"/>
<path d="M65.2811 192.591C64.3634 192.829 63.8025 193.766 64.0234 194.685C64.2614 195.605 65.1961 196.167 66.1139 195.945C67.0317 195.707 67.5925 194.77 67.3716 193.851C67.1506 192.931 66.1989 192.369 65.2811 192.591Z" stroke="#F5B57B" stroke-width="0.4" mask="url(#path-1-outside-1_534_8752)"/>
<path d="M61.321 185.932C60.4032 186.171 59.8424 187.107 60.0633 188.027C60.2843 188.946 61.236 189.508 62.1538 189.287C63.0715 189.066 63.6324 188.112 63.4115 187.192C63.1905 186.273 62.2388 185.711 61.321 185.932Z" stroke="#F5B57B" stroke-width="0.4" mask="url(#path-1-outside-1_534_8752)"/>
<path d="M48.607 113.681C49.5248 113.443 50.1026 112.506 49.8647 111.587C49.6268 110.667 48.692 110.105 47.7742 110.327C46.8565 110.565 46.2956 111.502 46.5165 112.421C46.7545 113.341 47.6892 113.903 48.607 113.681Z" stroke="#F5B57B" stroke-width="0.4" mask="url(#path-1-outside-1_534_8752)"/>
<path d="M46.8909 63.3108C47.8086 63.0724 48.3695 62.1359 48.1485 61.2163C47.9276 60.2968 46.9758 59.7348 46.0581 59.9562C45.1403 60.1776 44.5794 61.1312 44.8004 62.0507C45.0213 62.9703 45.9731 63.5322 46.8909 63.3108Z" stroke="#F5B57B" stroke-width="0.4" mask="url(#path-1-outside-1_534_8752)"/>
<path d="M2.31131 192.591C1.39354 192.829 0.815689 193.766 1.05363 194.685C1.29157 195.605 2.22632 196.167 3.14409 195.945C4.06186 195.707 4.62273 194.77 4.40178 193.851C4.16384 192.931 3.22907 192.369 2.31131 192.591Z" stroke="#F5B57B" stroke-width="0.4" mask="url(#path-1-outside-1_534_8752)"/>
<path d="M32.3774 192.591C31.4596 192.829 30.8818 193.766 31.1197 194.685C31.3577 195.605 32.2924 196.167 33.2102 195.945C34.128 195.707 34.7058 194.77 34.4679 193.851C34.2299 192.931 33.2952 192.369 32.3774 192.591Z" stroke="#F5B57B" stroke-width="0.4" mask="url(#path-1-outside-1_534_8752)"/>
<path d="M27.0906 173.196C26.1728 173.434 25.612 174.371 25.8329 175.29C26.0539 176.21 27.0056 176.772 27.9234 176.55C28.8412 176.312 29.402 175.376 29.1811 174.456C28.9601 173.536 28.0084 172.974 27.0906 173.196Z" stroke="#F5B57B" stroke-width="0.4" mask="url(#path-1-outside-1_534_8752)"/>
<path d="M49.5092 155.435C48.5914 155.673 48.0136 156.609 48.2515 157.529C48.4895 158.449 49.4242 159.028 50.342 158.789C51.2598 158.551 51.8376 157.614 51.5997 156.695C51.3617 155.775 50.427 155.196 49.5092 155.435Z" stroke="#F5B57B" stroke-width="0.4" mask="url(#path-1-outside-1_534_8752)"/>
</svg>
