<svg width="142" height="145" viewBox="0 0 142 145" fill="none" xmlns="http://www.w3.org/2000/svg">
<path d="M86.2657 85.7677L86.3202 85.5571C86.32 85.557 86.3197 85.557 86.3195 85.5569L86.2656 85.7677L86.2657 85.7677ZM86.2657 85.7677L86.2576 85.7991L86.2657 85.7677ZM141.185 142.604C141.463 141.479 140.826 140.351 139.75 140.009L139.735 139.979L139.709 139.972V2.81803V2.78798L139.702 2.75879L139.702 2.75867L139.702 2.75853L139.702 2.75819L139.701 2.75728L139.701 2.75456L139.698 2.74592C139.697 2.73896 139.694 2.72928 139.691 2.71834C139.689 2.71248 139.687 2.70403 139.683 2.69408V2.694V2.69392V2.69384V2.69376V2.69369V2.69361V2.69353V2.69345V2.69337V2.69329V2.69322V2.69314V2.69306V2.69298V2.6929V2.69283V2.69275V2.69267V2.69259V2.69251V2.69244V2.69236V2.69228V2.6922V2.69213V2.69205V2.69197V2.69189V2.69182V2.69174V2.69166V2.69158V2.69151V2.69143V2.69135V2.69127V2.6912V2.69112V2.69104V2.69097V2.69089V2.69081V2.69073V2.69066V2.69058V2.6905V2.69043V2.69035V2.69027V2.6902V2.69012V2.69004V2.68996V2.68989V2.68981V2.68973V2.68966V2.68958V2.6895V2.68943V2.68935V2.68927V2.6892V2.68912V2.68904V2.68897V2.68889V2.68881V2.68874V2.68866V2.68858V2.68851V2.68843V2.68835V2.68828V2.6882V2.68812V2.68805V2.68797V2.6879V2.68782V2.68774V2.68767V2.68759V2.68751V2.68744V2.68741V2.68737V2.68734V2.68731V2.68728V2.68724V2.68721V2.68717V2.68714V2.68711V2.68707V2.68704V2.68701V2.68697V2.68694V2.68691V2.68687V2.68683V2.68679V2.68676V2.68673V2.68669V2.68666V2.68662V2.68659V2.68655V2.68651V2.68647V2.68643V2.68639V2.68634V2.6863V2.68625V2.68622V2.68619V2.68616V2.68612V2.68609V2.68606V2.68602V2.68599V2.68595V2.68592V2.68588V2.68584V2.6858V2.68576V2.68573V2.68569V2.68565V2.6856V2.68556V2.68552V2.68548V2.68543V2.68539V2.68535V2.6853V2.68525V2.68521V2.68516V2.68511V2.68506V2.68501V2.68496V2.68491V2.68486V2.68481V2.68476V2.6847V2.68465V2.68459V2.68454V2.68448V2.68442V2.68437V2.68431V2.68425V2.68419V2.68413V2.6841V2.68406V2.68403V2.684V2.68397V2.68394V2.68391V2.68388V2.68384V2.68381V2.68378V2.68374V2.68371V2.68368V2.68365V2.68361V2.68358V2.68354V2.68351V2.68347V2.68344V2.68341V2.68337V2.68334V2.6833V2.68326V2.68323V2.68319V2.68316V2.68312V2.68308V2.68305V2.68301V2.68297V2.68293V2.6829V2.68286V2.68282V2.68278V2.68274V2.6827V2.68267V2.68263V2.68259V2.68255V2.68251V2.68247V2.68243V2.68239V2.68235V2.6823V2.68226V2.68222V2.68218V2.68214V2.6821V2.68205V2.68201V2.68197V2.68193V2.68188V2.68184V2.6818V2.68175V2.68171V2.68166V2.68162V2.68157V2.68153V2.68148V2.68144V2.68139V2.68135V2.6813V2.68125V2.68121V2.68116V2.68111V2.68107V2.68102V2.68097V2.68092V2.68088V2.68083V2.68078V2.68073V2.68068V2.68063V2.68058V2.68053V2.68048V2.68043V2.68038V2.68033V2.68028V2.68023V2.68018V2.68012V2.68007V2.68002V2.67997V2.67991V2.67986V2.67981V2.67975V2.6797V2.67965V2.67959V2.67954V2.67948V2.67943V2.67937V2.67932V2.67926V2.6792V2.67915V2.67909V2.67903V2.67898V2.67892V2.67886V2.6788V2.67875V2.67869V2.67863V2.67857V2.67851V2.67845V2.67839V2.67833V2.67827V2.67821V2.67815V2.67809V2.67803V2.67796V2.6779V2.67784V2.67778V2.67772V2.67765V2.67759V2.67753V2.67746V2.6774V2.67733V2.67727V2.6772V2.67714V2.67707V2.67701V2.67694V2.67688V2.67681V2.67674V2.67667V2.67661V2.67654V2.67647V2.6764V2.67634V2.67627V2.6762V2.67613V2.67606V2.67599V2.67592V2.67585V2.67578V2.67571V2.67563V2.67556V2.67549V2.67542V2.67535V2.67527V2.6752V2.67513V2.67505V2.67498V2.6749V2.67483V2.67475V2.67468V2.6746V2.67453V2.67445V2.67438V2.42438H139.534C139.523 2.4139 139.512 2.40384 139.5 2.39429C139.491 2.38277 139.477 2.36837 139.46 2.35423C139.443 2.34059 139.406 2.31298 139.351 2.30035C139.293 2.2848 139.242 2.28727 139.214 2.28995C139.201 2.29115 139.187 2.29301 139.181 2.29378H4.91369C4.58694 1.19023 3.47611 0.538567 2.36226 0.812197L2.36226 0.812179L2.35931 0.81294C1.21193 1.10964 0.537759 2.27865 0.810479 3.43689L0.810462 3.4369L0.811166 3.43974C1.09939 4.60263 2.24277 5.30143 3.38935 5.01976L3.38936 5.01977L3.39157 5.01921C4.17933 4.81805 4.74341 4.19353 4.92531 3.44676H132.366L24.2547 21.9044C23.8445 20.9564 22.8283 20.4125 21.7943 20.6765L21.7936 20.6767C20.6462 20.9734 19.972 22.1424 20.2447 23.3006L20.2447 23.3006L20.2454 23.3035C20.5336 24.4664 21.677 25.1652 22.8236 24.8835L22.8249 24.8832C23.7042 24.6621 24.2986 23.9068 24.4044 23.0521L133.231 4.46424L41.029 38.8732C40.5301 38.2055 39.6846 37.8655 38.8248 38.085L38.8241 38.0852C37.6767 38.3819 37.0025 39.5509 37.2752 40.7092L37.276 40.712C37.5642 41.8749 38.7076 42.5737 39.8541 42.292L39.8556 42.2917C40.9054 42.0271 41.564 41.0098 41.4424 39.9523L134.585 5.19647L57.6628 55.8508C57.1516 55.3215 56.3905 55.0697 55.6361 55.272C54.4895 55.5692 53.8158 56.7378 54.0884 57.8957L54.0892 57.8985C54.3774 59.0614 55.5207 59.7602 56.6673 59.4786L56.6702 59.4778C57.8108 59.1829 58.4838 58.0259 58.2238 56.8744C58.2236 56.8729 58.2235 56.8715 58.2233 56.8701L135.002 6.30726L3.81595 140.305L3.64473 140.48L3.81595 140.655L4.26342 141.112L4.44206 141.294L4.6207 141.112L135.793 7.12912L86.2927 85.5502C85.1507 85.2708 84.0243 85.9857 83.7391 87.1364C83.4509 88.2993 84.1426 89.4672 85.2872 89.7632C86.4386 90.0609 87.5809 89.3438 87.8684 88.1839L87.869 88.1812C88.0514 87.4092 87.8093 86.6341 87.2973 86.1204L136.874 7.57295L102.855 102.691C101.812 102.57 100.822 103.25 100.565 104.311C100.277 105.473 100.969 106.641 102.113 106.937C103.265 107.234 104.407 106.517 104.694 105.357C104.908 104.497 104.578 103.625 103.92 103.113L137.591 8.96691L119.4 120.096C118.558 120.206 117.823 120.816 117.608 121.706C117.32 122.869 118.012 124.036 119.157 124.332C120.308 124.63 121.45 123.913 121.738 122.753C121.994 121.719 121.468 120.671 120.534 120.249L138.595 9.86435V139.995C137.866 140.185 137.252 140.753 137.055 141.556C136.767 142.719 137.459 143.887 138.604 144.183C139.755 144.481 140.897 143.763 141.185 142.604Z" fill="#F5B57B" stroke="#F5B57B" stroke-width="0.5"/>
</svg>
