<svg width="65" height="97" viewBox="0 0 65 97" fill="none" xmlns="http://www.w3.org/2000/svg">
<mask id="path-1-outside-1_464_1927" maskUnits="userSpaceOnUse" x="0" y="0" width="65" height="97" fill="black">
<rect fill="white" width="65" height="97"/>
<path d="M40.9259 30.1084C40.9259 30.1084 40.9875 30.1084 41.0106 30.0859C41.0954 30.0482 49.4633 25.9935 55.7277 18.1172C61.9844 10.2409 63.9262 1.31896 63.9493 1.22869C63.9647 1.16099 63.9339 1.08576 63.8799 1.04062C63.826 0.995486 63.7412 0.987964 63.6796 1.01805C63.5948 1.05567 55.2269 5.11041 48.9625 12.9867C42.6981 20.863 40.7641 29.7849 40.741 29.8752C40.7255 29.9429 40.7563 30.0182 40.8103 30.0633C40.8411 30.0859 40.8873 30.1009 40.9259 30.1009V30.1084ZM55.4195 17.884C50.334 24.2858 43.8462 28.1375 41.627 29.3411L63.356 1.99601C62.7164 4.39576 60.505 11.4822 55.4195 17.884ZM49.263 13.2199C54.3485 6.81807 60.8363 2.96644 63.0554 1.7628L41.3342 29.1004C41.9738 26.7006 44.1852 19.6142 49.2707 13.2124L49.263 13.2199Z"/>
<path d="M55.7739 28.7694L62.4313 20.9156C62.5545 20.9758 62.6932 21.0209 62.8473 21.0209C63.3559 21.0209 63.7643 20.6147 63.7566 20.1182C63.7566 19.6217 63.3405 19.223 62.8319 19.2305C62.3234 19.2305 61.915 19.6368 61.9227 20.1333C61.9227 20.3439 62.0075 20.5244 62.1307 20.6749L55.4734 28.5286L55.7662 28.7694H55.7739Z"/>
<path d="M41.3033 15.6121L45.4411 2.9664C45.4411 2.9664 45.4642 2.9664 45.4796 2.9664C45.9881 2.9664 46.3965 2.56018 46.3888 2.06368C46.3888 1.56718 45.9727 1.16847 45.4642 1.17599C44.9556 1.17599 44.5472 1.58222 44.5549 2.07872C44.5549 2.42477 44.7707 2.71815 45.0635 2.86108L40.9335 15.4842L41.3033 15.5971V15.6121Z"/>
<path d="M19.5359 2.98145C19.5359 2.98145 19.559 2.98145 19.5744 2.98145L23.7122 15.6271L24.082 15.5143L19.952 2.89117C20.2525 2.74824 20.4606 2.45486 20.4606 2.10881C20.4606 1.61231 20.0599 1.21361 19.5514 1.20609C19.0428 1.20609 18.6344 1.59727 18.6267 2.09377C18.6267 2.59027 19.0274 2.98897 19.5359 2.99649V2.98145Z"/>
<path d="M2.18356 19.2381C1.67501 19.2381 1.26662 19.6293 1.25891 20.1258C1.25891 20.6223 1.65958 21.021 2.16813 21.0285C2.32224 21.0285 2.46096 20.9834 2.58425 20.9232L9.24163 28.7769L9.53443 28.5362L2.87705 20.6825C3.00034 20.532 3.08506 20.3515 3.08506 20.1409C3.08506 19.6444 2.68439 19.2456 2.17584 19.2381H2.18356Z"/>
<path d="M24.0127 30.0934C24.0127 30.0934 24.0666 30.116 24.0975 30.116C24.136 30.116 24.1822 30.101 24.2131 30.0784C24.2747 30.0332 24.2978 29.9655 24.2824 29.8903C24.267 29.8 22.3176 20.8781 16.0609 13.0018C9.80416 5.12551 1.42853 1.07077 1.34377 1.03315C1.28213 1.00306 1.19736 1.01058 1.14343 1.05572C1.08949 1.10086 1.05865 1.16856 1.07406 1.24379C1.08947 1.33406 3.03119 10.256 9.29559 18.1323C15.5523 26.0086 23.928 30.0633 24.0127 30.101V30.0934ZM9.60382 17.8916C4.51833 11.4897 2.30692 4.40333 1.66738 2.00358L23.3963 29.3487C21.1772 28.145 14.6893 24.2934 9.60382 17.8916ZM15.7603 13.2275C20.8458 19.6293 23.0572 26.7157 23.6968 29.1155L1.97557 1.7779C4.19469 2.98154 10.6826 6.83317 15.7681 13.235L15.7603 13.2275Z"/>
<path d="M18.5573 62.9452C23.6967 66.2326 28.5587 69.3395 32.3189 74.8085V87.9281C31.1015 85.8067 26.7017 78.6902 19.4742 72.6871C10.9213 65.5856 1.41298 62.554 1.31282 62.5239C1.24347 62.5013 1.15874 62.5239 1.1048 62.5841C1.05087 62.6442 1.04314 62.727 1.08167 62.7947C1.1279 62.885 5.72025 71.5587 14.2731 78.6601C19.844 83.2866 25.8233 86.1829 29.3369 87.6498L3.06964 80.9997C3.06964 80.9997 3.08502 80.947 3.08502 80.9169C3.08502 80.4204 2.68435 80.0217 2.1758 80.0142C1.66726 80.0142 1.25891 80.4054 1.25121 80.9019C1.25121 81.3984 1.65188 81.7971 2.16043 81.8046C2.49946 81.8046 2.78451 81.6241 2.93862 81.3608L32.3035 88.8008V95.6239H1.25121V96H63.8104V95.6239H32.6965V88.8008L62.0536 81.3683C62.2154 81.6316 62.5005 81.8121 62.8319 81.8121C63.3404 81.8121 63.7488 81.4059 63.7411 80.9094C63.7411 80.4129 63.325 80.0142 62.8164 80.0217C62.3079 80.0217 61.8995 80.428 61.9072 80.9245C61.9072 80.9546 61.9226 80.9771 61.9226 81.0072L35.6553 87.6573C39.1689 86.1904 45.1482 83.2941 50.7191 78.6677C59.272 71.5662 63.8643 62.8925 63.9106 62.8022C63.9491 62.7345 63.9337 62.6518 63.8875 62.5916C63.8413 62.5314 63.7565 62.5088 63.6794 62.5314C63.587 62.5615 54.0786 65.5932 45.5258 72.6946C38.3213 78.6752 33.9293 85.7691 32.6965 87.9131V74.801C36.4567 69.3395 41.311 66.2326 46.4504 62.9527C50.8424 60.1467 55.3808 57.2429 59.1564 52.7368C64.8661 45.9363 63.9491 32.6211 63.9414 32.4857C63.9414 32.3879 63.849 32.2976 63.7411 32.3126C63.6409 32.3126 63.5639 32.3954 63.5562 32.4932C63.5253 33.0348 63.4791 33.5539 63.4328 34.0729C62.1692 42.19 51.4974 50.3521 44.2852 55.8663C42.4976 57.2354 40.9488 58.4165 39.8315 59.3869C35.1236 63.4642 33.3514 68.0907 32.6888 71.1976V56.0393C33.5903 55.6556 39.8624 52.8572 44.6011 47.2678C49.6943 41.2647 51.22 34.1557 51.2354 34.0805C51.2508 34.0128 51.2277 33.9451 51.166 33.8999C51.1121 33.8548 51.0351 33.8473 50.9734 33.8698C50.9041 33.8999 44.0387 36.6909 38.9455 42.694C35.2084 47.1023 33.3977 52.0899 32.6888 54.4671V37.7064C32.9893 37.0896 36.7803 29.0854 36.7803 19.4337C36.7803 9.78208 32.7119 1.20617 32.6734 1.12342C32.6117 0.995537 32.3882 0.995537 32.3266 1.12342C32.2881 1.20617 28.2197 9.43603 28.2197 19.4337C28.2197 29.4314 32.0107 37.0896 32.3112 37.7064V54.5047C31.61 52.1425 29.7993 47.1249 26.0391 42.694C20.9459 36.6909 14.0805 33.8999 14.0112 33.8698C13.9495 33.8473 13.8725 33.8548 13.8185 33.8999C13.7646 33.9451 13.7415 34.0128 13.7492 34.0805C13.7646 34.1482 15.2902 41.2571 20.3834 47.2678C25.1376 52.8798 31.4405 55.6782 32.3112 56.0468V71.2578C31.6563 68.1584 29.8917 63.5018 25.1607 59.3944C24.0434 58.4315 22.5024 57.2429 20.7147 55.8813C13.5026 50.3672 2.83848 42.205 1.5671 34.088C1.52087 33.5689 1.46696 33.0499 1.44384 32.5082C1.44384 32.4104 1.35904 32.3352 1.25887 32.3277C1.13559 32.3126 1.06628 32.4029 1.05858 32.5007C1.05087 32.6361 0.13391 45.9513 5.84353 52.7519C9.62683 57.258 14.1652 60.1618 18.5495 62.9677L18.5573 62.9452ZM18.7653 62.6292C14.4041 59.8383 9.88882 56.9571 6.14405 52.4961C2.27599 47.8847 1.50544 40.204 1.40528 35.8333C2.72288 44.7402 7.43854 50.9539 17.8022 57.8448C27.4646 64.2616 30.878 70.9644 31.9182 73.6124C28.1966 68.67 23.4116 65.6007 18.7653 62.6367V62.6292ZM31.8181 87.8303L2.19123 63.231C4.82644 64.1939 12.3391 67.2557 19.2276 72.9805C26.1238 78.7053 30.4157 85.4456 31.8181 87.8303ZM1.93694 63.5169L31.5638 88.1162C28.9286 87.1533 21.4236 84.0915 14.5274 78.3667C7.63117 72.6419 3.3393 65.9016 1.93694 63.5169ZM50.4803 78.3667C43.584 84.0915 36.0791 87.1458 33.4439 88.1162L63.0784 63.5169C61.6761 65.9016 57.3842 72.6419 50.488 78.3743L50.4803 78.3667ZM45.7878 72.9729C52.684 67.2482 60.1889 64.1939 62.8242 63.2235L33.1973 87.8228C34.5997 85.4381 38.8915 78.6977 45.7878 72.9729ZM58.8713 52.4886C55.1266 56.9496 50.6113 59.8383 46.2501 62.6217C41.6038 65.5932 36.8188 68.6549 33.0971 73.5973C34.1373 70.9569 37.5508 64.2541 47.2132 57.8297C57.5768 50.9389 62.3002 44.7176 63.6101 35.8182C63.5099 40.1964 62.7317 47.8771 58.8713 52.481V52.4886ZM40.1013 59.6502C41.2031 58.6948 42.7519 57.5138 44.5318 56.1446C50.9734 51.2172 60.1427 44.1985 63.0399 36.9015C61.5065 45.0937 56.814 50.9991 46.9975 57.5213C37.312 63.9532 33.8368 70.6936 32.7581 73.4243C32.9816 70.8365 34.1528 64.8108 40.1013 59.6502ZM44.3237 46.997C40.2785 51.7664 35.1082 54.4821 33.205 55.3773L50.6806 34.7726C50.1335 36.7736 48.369 42.2351 44.3237 47.0045V46.997ZM50.7808 34.3814L50.75 34.3588C50.75 34.3588 50.7808 34.3438 50.7885 34.3438C50.7885 34.3588 50.7885 34.3739 50.7808 34.3814ZM39.2614 42.9046C43.3066 38.1352 48.4769 35.427 50.3801 34.5243L32.9045 55.1291C33.4516 53.128 35.2161 47.6665 39.2614 42.8971V42.9046ZM32.7042 2.07129C33.7058 4.35819 36.4104 11.2941 36.4104 19.4187C36.4104 27.5432 33.7058 34.4792 32.7042 36.7661V2.07129ZM28.6126 19.4036C28.6126 11.2866 31.3172 4.34315 32.3189 2.05624V36.751C31.3172 34.4641 28.6126 27.5282 28.6126 19.4036ZM25.754 42.9046C29.7993 47.674 31.5638 53.1355 32.1109 55.1366L14.6353 34.5318C16.5462 35.427 21.7087 38.1427 25.754 42.9121V42.9046ZM14.2654 34.3588L14.2346 34.3814C14.2346 34.3814 14.2269 34.3513 14.2269 34.3438C14.2346 34.3438 14.2577 34.3588 14.2654 34.3588ZM20.6916 46.997C16.6464 42.2276 14.8818 36.7661 14.3348 34.765L31.8104 55.3698C29.8995 54.4746 24.7369 51.7589 20.6916 46.9895V46.997ZM20.4836 56.1446C22.2712 57.5062 23.8123 58.6873 24.9141 59.6502C30.8626 64.8108 32.0415 70.8365 32.2573 73.4243C31.1785 70.6936 27.6957 63.9532 18.0179 57.5213C8.20134 50.9991 3.50881 45.0937 1.97546 36.9015C4.86494 44.1985 14.042 51.2172 20.4836 56.1446Z"/>
</mask>
<path d="M40.9259 30.1084C40.9259 30.1084 40.9875 30.1084 41.0106 30.0859C41.0954 30.0482 49.4633 25.9935 55.7277 18.1172C61.9844 10.2409 63.9262 1.31896 63.9493 1.22869C63.9647 1.16099 63.9339 1.08576 63.8799 1.04062C63.826 0.995486 63.7412 0.987964 63.6796 1.01805C63.5948 1.05567 55.2269 5.11041 48.9625 12.9867C42.6981 20.863 40.7641 29.7849 40.741 29.8752C40.7255 29.9429 40.7563 30.0182 40.8103 30.0633C40.8411 30.0859 40.8873 30.1009 40.9259 30.1009V30.1084ZM55.4195 17.884C50.334 24.2858 43.8462 28.1375 41.627 29.3411L63.356 1.99601C62.7164 4.39576 60.505 11.4822 55.4195 17.884ZM49.263 13.2199C54.3485 6.81807 60.8363 2.96644 63.0554 1.7628L41.3342 29.1004C41.9738 26.7006 44.1852 19.6142 49.2707 13.2124L49.263 13.2199Z" fill="#FFFBFA"/>
<path d="M55.7739 28.7694L62.4313 20.9156C62.5545 20.9758 62.6932 21.0209 62.8473 21.0209C63.3559 21.0209 63.7643 20.6147 63.7566 20.1182C63.7566 19.6217 63.3405 19.223 62.8319 19.2305C62.3234 19.2305 61.915 19.6368 61.9227 20.1333C61.9227 20.3439 62.0075 20.5244 62.1307 20.6749L55.4734 28.5286L55.7662 28.7694H55.7739Z" fill="#FFFBFA"/>
<path d="M41.3033 15.6121L45.4411 2.9664C45.4411 2.9664 45.4642 2.9664 45.4796 2.9664C45.9881 2.9664 46.3965 2.56018 46.3888 2.06368C46.3888 1.56718 45.9727 1.16847 45.4642 1.17599C44.9556 1.17599 44.5472 1.58222 44.5549 2.07872C44.5549 2.42477 44.7707 2.71815 45.0635 2.86108L40.9335 15.4842L41.3033 15.5971V15.6121Z" fill="#FFFBFA"/>
<path d="M19.5359 2.98145C19.5359 2.98145 19.559 2.98145 19.5744 2.98145L23.7122 15.6271L24.082 15.5143L19.952 2.89117C20.2525 2.74824 20.4606 2.45486 20.4606 2.10881C20.4606 1.61231 20.0599 1.21361 19.5514 1.20609C19.0428 1.20609 18.6344 1.59727 18.6267 2.09377C18.6267 2.59027 19.0274 2.98897 19.5359 2.99649V2.98145Z" fill="#FFFBFA"/>
<path d="M2.18356 19.2381C1.67501 19.2381 1.26662 19.6293 1.25891 20.1258C1.25891 20.6223 1.65958 21.021 2.16813 21.0285C2.32224 21.0285 2.46096 20.9834 2.58425 20.9232L9.24163 28.7769L9.53443 28.5362L2.87705 20.6825C3.00034 20.532 3.08506 20.3515 3.08506 20.1409C3.08506 19.6444 2.68439 19.2456 2.17584 19.2381H2.18356Z" fill="#FFFBFA"/>
<path d="M24.0127 30.0934C24.0127 30.0934 24.0666 30.116 24.0975 30.116C24.136 30.116 24.1822 30.101 24.2131 30.0784C24.2747 30.0332 24.2978 29.9655 24.2824 29.8903C24.267 29.8 22.3176 20.8781 16.0609 13.0018C9.80416 5.12551 1.42853 1.07077 1.34377 1.03315C1.28213 1.00306 1.19736 1.01058 1.14343 1.05572C1.08949 1.10086 1.05865 1.16856 1.07406 1.24379C1.08947 1.33406 3.03119 10.256 9.29559 18.1323C15.5523 26.0086 23.928 30.0633 24.0127 30.101V30.0934ZM9.60382 17.8916C4.51833 11.4897 2.30692 4.40333 1.66738 2.00358L23.3963 29.3487C21.1772 28.145 14.6893 24.2934 9.60382 17.8916ZM15.7603 13.2275C20.8458 19.6293 23.0572 26.7157 23.6968 29.1155L1.97557 1.7779C4.19469 2.98154 10.6826 6.83317 15.7681 13.235L15.7603 13.2275Z" fill="#FFFBFA"/>
<path d="M18.5573 62.9452C23.6967 66.2326 28.5587 69.3395 32.3189 74.8085V87.9281C31.1015 85.8067 26.7017 78.6902 19.4742 72.6871C10.9213 65.5856 1.41298 62.554 1.31282 62.5239C1.24347 62.5013 1.15874 62.5239 1.1048 62.5841C1.05087 62.6442 1.04314 62.727 1.08167 62.7947C1.1279 62.885 5.72025 71.5587 14.2731 78.6601C19.844 83.2866 25.8233 86.1829 29.3369 87.6498L3.06964 80.9997C3.06964 80.9997 3.08502 80.947 3.08502 80.9169C3.08502 80.4204 2.68435 80.0217 2.1758 80.0142C1.66726 80.0142 1.25891 80.4054 1.25121 80.9019C1.25121 81.3984 1.65188 81.7971 2.16043 81.8046C2.49946 81.8046 2.78451 81.6241 2.93862 81.3608L32.3035 88.8008V95.6239H1.25121V96H63.8104V95.6239H32.6965V88.8008L62.0536 81.3683C62.2154 81.6316 62.5005 81.8121 62.8319 81.8121C63.3404 81.8121 63.7488 81.4059 63.7411 80.9094C63.7411 80.4129 63.325 80.0142 62.8164 80.0217C62.3079 80.0217 61.8995 80.428 61.9072 80.9245C61.9072 80.9546 61.9226 80.9771 61.9226 81.0072L35.6553 87.6573C39.1689 86.1904 45.1482 83.2941 50.7191 78.6677C59.272 71.5662 63.8643 62.8925 63.9106 62.8022C63.9491 62.7345 63.9337 62.6518 63.8875 62.5916C63.8413 62.5314 63.7565 62.5088 63.6794 62.5314C63.587 62.5615 54.0786 65.5932 45.5258 72.6946C38.3213 78.6752 33.9293 85.7691 32.6965 87.9131V74.801C36.4567 69.3395 41.311 66.2326 46.4504 62.9527C50.8424 60.1467 55.3808 57.2429 59.1564 52.7368C64.8661 45.9363 63.9491 32.6211 63.9414 32.4857C63.9414 32.3879 63.849 32.2976 63.7411 32.3126C63.6409 32.3126 63.5639 32.3954 63.5562 32.4932C63.5253 33.0348 63.4791 33.5539 63.4328 34.0729C62.1692 42.19 51.4974 50.3521 44.2852 55.8663C42.4976 57.2354 40.9488 58.4165 39.8315 59.3869C35.1236 63.4642 33.3514 68.0907 32.6888 71.1976V56.0393C33.5903 55.6556 39.8624 52.8572 44.6011 47.2678C49.6943 41.2647 51.22 34.1557 51.2354 34.0805C51.2508 34.0128 51.2277 33.9451 51.166 33.8999C51.1121 33.8548 51.0351 33.8473 50.9734 33.8698C50.9041 33.8999 44.0387 36.6909 38.9455 42.694C35.2084 47.1023 33.3977 52.0899 32.6888 54.4671V37.7064C32.9893 37.0896 36.7803 29.0854 36.7803 19.4337C36.7803 9.78208 32.7119 1.20617 32.6734 1.12342C32.6117 0.995537 32.3882 0.995537 32.3266 1.12342C32.2881 1.20617 28.2197 9.43603 28.2197 19.4337C28.2197 29.4314 32.0107 37.0896 32.3112 37.7064V54.5047C31.61 52.1425 29.7993 47.1249 26.0391 42.694C20.9459 36.6909 14.0805 33.8999 14.0112 33.8698C13.9495 33.8473 13.8725 33.8548 13.8185 33.8999C13.7646 33.9451 13.7415 34.0128 13.7492 34.0805C13.7646 34.1482 15.2902 41.2571 20.3834 47.2678C25.1376 52.8798 31.4405 55.6782 32.3112 56.0468V71.2578C31.6563 68.1584 29.8917 63.5018 25.1607 59.3944C24.0434 58.4315 22.5024 57.2429 20.7147 55.8813C13.5026 50.3672 2.83848 42.205 1.5671 34.088C1.52087 33.5689 1.46696 33.0499 1.44384 32.5082C1.44384 32.4104 1.35904 32.3352 1.25887 32.3277C1.13559 32.3126 1.06628 32.4029 1.05858 32.5007C1.05087 32.6361 0.13391 45.9513 5.84353 52.7519C9.62683 57.258 14.1652 60.1618 18.5495 62.9677L18.5573 62.9452ZM18.7653 62.6292C14.4041 59.8383 9.88882 56.9571 6.14405 52.4961C2.27599 47.8847 1.50544 40.204 1.40528 35.8333C2.72288 44.7402 7.43854 50.9539 17.8022 57.8448C27.4646 64.2616 30.878 70.9644 31.9182 73.6124C28.1966 68.67 23.4116 65.6007 18.7653 62.6367V62.6292ZM31.8181 87.8303L2.19123 63.231C4.82644 64.1939 12.3391 67.2557 19.2276 72.9805C26.1238 78.7053 30.4157 85.4456 31.8181 87.8303ZM1.93694 63.5169L31.5638 88.1162C28.9286 87.1533 21.4236 84.0915 14.5274 78.3667C7.63117 72.6419 3.3393 65.9016 1.93694 63.5169ZM50.4803 78.3667C43.584 84.0915 36.0791 87.1458 33.4439 88.1162L63.0784 63.5169C61.6761 65.9016 57.3842 72.6419 50.488 78.3743L50.4803 78.3667ZM45.7878 72.9729C52.684 67.2482 60.1889 64.1939 62.8242 63.2235L33.1973 87.8228C34.5997 85.4381 38.8915 78.6977 45.7878 72.9729ZM58.8713 52.4886C55.1266 56.9496 50.6113 59.8383 46.2501 62.6217C41.6038 65.5932 36.8188 68.6549 33.0971 73.5973C34.1373 70.9569 37.5508 64.2541 47.2132 57.8297C57.5768 50.9389 62.3002 44.7176 63.6101 35.8182C63.5099 40.1964 62.7317 47.8771 58.8713 52.481V52.4886ZM40.1013 59.6502C41.2031 58.6948 42.7519 57.5138 44.5318 56.1446C50.9734 51.2172 60.1427 44.1985 63.0399 36.9015C61.5065 45.0937 56.814 50.9991 46.9975 57.5213C37.312 63.9532 33.8368 70.6936 32.7581 73.4243C32.9816 70.8365 34.1528 64.8108 40.1013 59.6502ZM44.3237 46.997C40.2785 51.7664 35.1082 54.4821 33.205 55.3773L50.6806 34.7726C50.1335 36.7736 48.369 42.2351 44.3237 47.0045V46.997ZM50.7808 34.3814L50.75 34.3588C50.75 34.3588 50.7808 34.3438 50.7885 34.3438C50.7885 34.3588 50.7885 34.3739 50.7808 34.3814ZM39.2614 42.9046C43.3066 38.1352 48.4769 35.427 50.3801 34.5243L32.9045 55.1291C33.4516 53.128 35.2161 47.6665 39.2614 42.8971V42.9046ZM32.7042 2.07129C33.7058 4.35819 36.4104 11.2941 36.4104 19.4187C36.4104 27.5432 33.7058 34.4792 32.7042 36.7661V2.07129ZM28.6126 19.4036C28.6126 11.2866 31.3172 4.34315 32.3189 2.05624V36.751C31.3172 34.4641 28.6126 27.5282 28.6126 19.4036ZM25.754 42.9046C29.7993 47.674 31.5638 53.1355 32.1109 55.1366L14.6353 34.5318C16.5462 35.427 21.7087 38.1427 25.754 42.9121V42.9046ZM14.2654 34.3588L14.2346 34.3814C14.2346 34.3814 14.2269 34.3513 14.2269 34.3438C14.2346 34.3438 14.2577 34.3588 14.2654 34.3588ZM20.6916 46.997C16.6464 42.2276 14.8818 36.7661 14.3348 34.765L31.8104 55.3698C29.8995 54.4746 24.7369 51.7589 20.6916 46.9895V46.997ZM20.4836 56.1446C22.2712 57.5062 23.8123 58.6873 24.9141 59.6502C30.8626 64.8108 32.0415 70.8365 32.2573 73.4243C31.1785 70.6936 27.6957 63.9532 18.0179 57.5213C8.20134 50.9991 3.50881 45.0937 1.97546 36.9015C4.86494 44.1985 14.042 51.2172 20.4836 56.1446Z" fill="#FFFBFA"/>
<path d="M40.9259 30.1084C40.9259 30.1084 40.9875 30.1084 41.0106 30.0859C41.0954 30.0482 49.4633 25.9935 55.7277 18.1172C61.9844 10.2409 63.9262 1.31896 63.9493 1.22869C63.9647 1.16099 63.9339 1.08576 63.8799 1.04062C63.826 0.995486 63.7412 0.987964 63.6796 1.01805C63.5948 1.05567 55.2269 5.11041 48.9625 12.9867C42.6981 20.863 40.7641 29.7849 40.741 29.8752C40.7255 29.9429 40.7563 30.0182 40.8103 30.0633C40.8411 30.0859 40.8873 30.1009 40.9259 30.1009V30.1084ZM55.4195 17.884C50.334 24.2858 43.8462 28.1375 41.627 29.3411L63.356 1.99601C62.7164 4.39576 60.505 11.4822 55.4195 17.884ZM49.263 13.2199C54.3485 6.81807 60.8363 2.96644 63.0554 1.7628L41.3342 29.1004C41.9738 26.7006 44.1852 19.6142 49.2707 13.2124L49.263 13.2199Z" stroke="#FFFBFA" stroke-width="0.2" mask="url(#path-1-outside-1_464_1927)"/>
<path d="M55.7739 28.7694L62.4313 20.9156C62.5545 20.9758 62.6932 21.0209 62.8473 21.0209C63.3559 21.0209 63.7643 20.6147 63.7566 20.1182C63.7566 19.6217 63.3405 19.223 62.8319 19.2305C62.3234 19.2305 61.915 19.6368 61.9227 20.1333C61.9227 20.3439 62.0075 20.5244 62.1307 20.6749L55.4734 28.5286L55.7662 28.7694H55.7739Z" stroke="#FFFBFA" stroke-width="0.2" mask="url(#path-1-outside-1_464_1927)"/>
<path d="M41.3033 15.6121L45.4411 2.9664C45.4411 2.9664 45.4642 2.9664 45.4796 2.9664C45.9881 2.9664 46.3965 2.56018 46.3888 2.06368C46.3888 1.56718 45.9727 1.16847 45.4642 1.17599C44.9556 1.17599 44.5472 1.58222 44.5549 2.07872C44.5549 2.42477 44.7707 2.71815 45.0635 2.86108L40.9335 15.4842L41.3033 15.5971V15.6121Z" stroke="#FFFBFA" stroke-width="0.2" mask="url(#path-1-outside-1_464_1927)"/>
<path d="M19.5359 2.98145C19.5359 2.98145 19.559 2.98145 19.5744 2.98145L23.7122 15.6271L24.082 15.5143L19.952 2.89117C20.2525 2.74824 20.4606 2.45486 20.4606 2.10881C20.4606 1.61231 20.0599 1.21361 19.5514 1.20609C19.0428 1.20609 18.6344 1.59727 18.6267 2.09377C18.6267 2.59027 19.0274 2.98897 19.5359 2.99649V2.98145Z" stroke="#FFFBFA" stroke-width="0.2" mask="url(#path-1-outside-1_464_1927)"/>
<path d="M2.18356 19.2381C1.67501 19.2381 1.26662 19.6293 1.25891 20.1258C1.25891 20.6223 1.65958 21.021 2.16813 21.0285C2.32224 21.0285 2.46096 20.9834 2.58425 20.9232L9.24163 28.7769L9.53443 28.5362L2.87705 20.6825C3.00034 20.532 3.08506 20.3515 3.08506 20.1409C3.08506 19.6444 2.68439 19.2456 2.17584 19.2381H2.18356Z" stroke="#FFFBFA" stroke-width="0.2" mask="url(#path-1-outside-1_464_1927)"/>
<path d="M24.0127 30.0934C24.0127 30.0934 24.0666 30.116 24.0975 30.116C24.136 30.116 24.1822 30.101 24.2131 30.0784C24.2747 30.0332 24.2978 29.9655 24.2824 29.8903C24.267 29.8 22.3176 20.8781 16.0609 13.0018C9.80416 5.12551 1.42853 1.07077 1.34377 1.03315C1.28213 1.00306 1.19736 1.01058 1.14343 1.05572C1.08949 1.10086 1.05865 1.16856 1.07406 1.24379C1.08947 1.33406 3.03119 10.256 9.29559 18.1323C15.5523 26.0086 23.928 30.0633 24.0127 30.101V30.0934ZM9.60382 17.8916C4.51833 11.4897 2.30692 4.40333 1.66738 2.00358L23.3963 29.3487C21.1772 28.145 14.6893 24.2934 9.60382 17.8916ZM15.7603 13.2275C20.8458 19.6293 23.0572 26.7157 23.6968 29.1155L1.97557 1.7779C4.19469 2.98154 10.6826 6.83317 15.7681 13.235L15.7603 13.2275Z" stroke="#FFFBFA" stroke-width="0.2" mask="url(#path-1-outside-1_464_1927)"/>
<path d="M18.5573 62.9452C23.6967 66.2326 28.5587 69.3395 32.3189 74.8085V87.9281C31.1015 85.8067 26.7017 78.6902 19.4742 72.6871C10.9213 65.5856 1.41298 62.554 1.31282 62.5239C1.24347 62.5013 1.15874 62.5239 1.1048 62.5841C1.05087 62.6442 1.04314 62.727 1.08167 62.7947C1.1279 62.885 5.72025 71.5587 14.2731 78.6601C19.844 83.2866 25.8233 86.1829 29.3369 87.6498L3.06964 80.9997C3.06964 80.9997 3.08502 80.947 3.08502 80.9169C3.08502 80.4204 2.68435 80.0217 2.1758 80.0142C1.66726 80.0142 1.25891 80.4054 1.25121 80.9019C1.25121 81.3984 1.65188 81.7971 2.16043 81.8046C2.49946 81.8046 2.78451 81.6241 2.93862 81.3608L32.3035 88.8008V95.6239H1.25121V96H63.8104V95.6239H32.6965V88.8008L62.0536 81.3683C62.2154 81.6316 62.5005 81.8121 62.8319 81.8121C63.3404 81.8121 63.7488 81.4059 63.7411 80.9094C63.7411 80.4129 63.325 80.0142 62.8164 80.0217C62.3079 80.0217 61.8995 80.428 61.9072 80.9245C61.9072 80.9546 61.9226 80.9771 61.9226 81.0072L35.6553 87.6573C39.1689 86.1904 45.1482 83.2941 50.7191 78.6677C59.272 71.5662 63.8643 62.8925 63.9106 62.8022C63.9491 62.7345 63.9337 62.6518 63.8875 62.5916C63.8413 62.5314 63.7565 62.5088 63.6794 62.5314C63.587 62.5615 54.0786 65.5932 45.5258 72.6946C38.3213 78.6752 33.9293 85.7691 32.6965 87.9131V74.801C36.4567 69.3395 41.311 66.2326 46.4504 62.9527C50.8424 60.1467 55.3808 57.2429 59.1564 52.7368C64.8661 45.9363 63.9491 32.6211 63.9414 32.4857C63.9414 32.3879 63.849 32.2976 63.7411 32.3126C63.6409 32.3126 63.5639 32.3954 63.5562 32.4932C63.5253 33.0348 63.4791 33.5539 63.4328 34.0729C62.1692 42.19 51.4974 50.3521 44.2852 55.8663C42.4976 57.2354 40.9488 58.4165 39.8315 59.3869C35.1236 63.4642 33.3514 68.0907 32.6888 71.1976V56.0393C33.5903 55.6556 39.8624 52.8572 44.6011 47.2678C49.6943 41.2647 51.22 34.1557 51.2354 34.0805C51.2508 34.0128 51.2277 33.9451 51.166 33.8999C51.1121 33.8548 51.0351 33.8473 50.9734 33.8698C50.9041 33.8999 44.0387 36.6909 38.9455 42.694C35.2084 47.1023 33.3977 52.0899 32.6888 54.4671V37.7064C32.9893 37.0896 36.7803 29.0854 36.7803 19.4337C36.7803 9.78208 32.7119 1.20617 32.6734 1.12342C32.6117 0.995537 32.3882 0.995537 32.3266 1.12342C32.2881 1.20617 28.2197 9.43603 28.2197 19.4337C28.2197 29.4314 32.0107 37.0896 32.3112 37.7064V54.5047C31.61 52.1425 29.7993 47.1249 26.0391 42.694C20.9459 36.6909 14.0805 33.8999 14.0112 33.8698C13.9495 33.8473 13.8725 33.8548 13.8185 33.8999C13.7646 33.9451 13.7415 34.0128 13.7492 34.0805C13.7646 34.1482 15.2902 41.2571 20.3834 47.2678C25.1376 52.8798 31.4405 55.6782 32.3112 56.0468V71.2578C31.6563 68.1584 29.8917 63.5018 25.1607 59.3944C24.0434 58.4315 22.5024 57.2429 20.7147 55.8813C13.5026 50.3672 2.83848 42.205 1.5671 34.088C1.52087 33.5689 1.46696 33.0499 1.44384 32.5082C1.44384 32.4104 1.35904 32.3352 1.25887 32.3277C1.13559 32.3126 1.06628 32.4029 1.05858 32.5007C1.05087 32.6361 0.13391 45.9513 5.84353 52.7519C9.62683 57.258 14.1652 60.1618 18.5495 62.9677L18.5573 62.9452ZM18.7653 62.6292C14.4041 59.8383 9.88882 56.9571 6.14405 52.4961C2.27599 47.8847 1.50544 40.204 1.40528 35.8333C2.72288 44.7402 7.43854 50.9539 17.8022 57.8448C27.4646 64.2616 30.878 70.9644 31.9182 73.6124C28.1966 68.67 23.4116 65.6007 18.7653 62.6367V62.6292ZM31.8181 87.8303L2.19123 63.231C4.82644 64.1939 12.3391 67.2557 19.2276 72.9805C26.1238 78.7053 30.4157 85.4456 31.8181 87.8303ZM1.93694 63.5169L31.5638 88.1162C28.9286 87.1533 21.4236 84.0915 14.5274 78.3667C7.63117 72.6419 3.3393 65.9016 1.93694 63.5169ZM50.4803 78.3667C43.584 84.0915 36.0791 87.1458 33.4439 88.1162L63.0784 63.5169C61.6761 65.9016 57.3842 72.6419 50.488 78.3743L50.4803 78.3667ZM45.7878 72.9729C52.684 67.2482 60.1889 64.1939 62.8242 63.2235L33.1973 87.8228C34.5997 85.4381 38.8915 78.6977 45.7878 72.9729ZM58.8713 52.4886C55.1266 56.9496 50.6113 59.8383 46.2501 62.6217C41.6038 65.5932 36.8188 68.6549 33.0971 73.5973C34.1373 70.9569 37.5508 64.2541 47.2132 57.8297C57.5768 50.9389 62.3002 44.7176 63.6101 35.8182C63.5099 40.1964 62.7317 47.8771 58.8713 52.481V52.4886ZM40.1013 59.6502C41.2031 58.6948 42.7519 57.5138 44.5318 56.1446C50.9734 51.2172 60.1427 44.1985 63.0399 36.9015C61.5065 45.0937 56.814 50.9991 46.9975 57.5213C37.312 63.9532 33.8368 70.6936 32.7581 73.4243C32.9816 70.8365 34.1528 64.8108 40.1013 59.6502ZM44.3237 46.997C40.2785 51.7664 35.1082 54.4821 33.205 55.3773L50.6806 34.7726C50.1335 36.7736 48.369 42.2351 44.3237 47.0045V46.997ZM50.7808 34.3814L50.75 34.3588C50.75 34.3588 50.7808 34.3438 50.7885 34.3438C50.7885 34.3588 50.7885 34.3739 50.7808 34.3814ZM39.2614 42.9046C43.3066 38.1352 48.4769 35.427 50.3801 34.5243L32.9045 55.1291C33.4516 53.128 35.2161 47.6665 39.2614 42.8971V42.9046ZM32.7042 2.07129C33.7058 4.35819 36.4104 11.2941 36.4104 19.4187C36.4104 27.5432 33.7058 34.4792 32.7042 36.7661V2.07129ZM28.6126 19.4036C28.6126 11.2866 31.3172 4.34315 32.3189 2.05624V36.751C31.3172 34.4641 28.6126 27.5282 28.6126 19.4036ZM25.754 42.9046C29.7993 47.674 31.5638 53.1355 32.1109 55.1366L14.6353 34.5318C16.5462 35.427 21.7087 38.1427 25.754 42.9121V42.9046ZM14.2654 34.3588L14.2346 34.3814C14.2346 34.3814 14.2269 34.3513 14.2269 34.3438C14.2346 34.3438 14.2577 34.3588 14.2654 34.3588ZM20.6916 46.997C16.6464 42.2276 14.8818 36.7661 14.3348 34.765L31.8104 55.3698C29.8995 54.4746 24.7369 51.7589 20.6916 46.9895V46.997ZM20.4836 56.1446C22.2712 57.5062 23.8123 58.6873 24.9141 59.6502C30.8626 64.8108 32.0415 70.8365 32.2573 73.4243C31.1785 70.6936 27.6957 63.9532 18.0179 57.5213C8.20134 50.9991 3.50881 45.0937 1.97546 36.9015C4.86494 44.1985 14.042 51.2172 20.4836 56.1446Z" stroke="#FFFBFA" stroke-width="0.2" mask="url(#path-1-outside-1_464_1927)"/>
</svg>
