<svg width="178" height="180" viewBox="0 0 178 180" fill="none" xmlns="http://www.w3.org/2000/svg">
<path d="M55.653 44.0516L57.0859 46.2952L125.379 2.9756L176.104 46.14L176.161 46.1875L177.847 44.2214L177.895 44.1648L126.363 0.319473C126.122 0.112921 125.815 -0.000490638 125.498 1.5956e-06H70.4C70.1463 0.000451541 69.8978 0.072612 69.6835 0.208108L0.617528 44.0206C0.427826 44.1401 0.271654 44.3057 0.163655 44.5017C0.055656 44.6977 -0.000648518 44.9179 5.63557e-06 45.1415V136.368C0.00125585 136.647 0.090305 136.919 0.254636 137.146C0.418968 137.372 0.650322 137.541 0.916195 137.63L55.1051 155.885V180H57.7731V156.268H171.875L171.892 156.308C171.912 156.359 171.936 156.407 171.963 156.454C172.301 157.016 172.816 157.449 173.427 157.686C174.039 157.924 174.713 157.952 175.342 157.767C175.971 157.581 176.521 157.192 176.904 156.661C177.288 156.13 177.483 155.487 177.459 154.834C177.436 154.18 177.195 153.553 176.774 153.051C176.354 152.549 175.777 152.2 175.136 152.06C174.495 151.92 173.825 151.996 173.232 152.277C172.639 152.557 172.157 153.026 171.861 153.61H71.5159L172.257 135.72C172.708 136.253 173.335 136.607 174.025 136.721C174.715 136.834 175.423 136.699 176.022 136.339C176.438 136.089 176.786 135.74 177.035 135.325C177.284 134.909 177.427 134.438 177.45 133.954C177.473 133.471 177.376 132.989 177.167 132.551C176.959 132.113 176.646 131.734 176.255 131.445C175.865 131.157 175.409 130.969 174.928 130.898C174.447 130.827 173.956 130.875 173.498 131.038C173.041 131.201 172.63 131.474 172.303 131.832C171.976 132.19 171.743 132.624 171.624 133.093V133.133L71.3932 150.934L172.337 114.351C172.647 114.58 172.999 114.746 173.374 114.838C173.942 114.98 174.539 114.951 175.09 114.754C175.641 114.558 176.122 114.203 176.47 113.735C176.819 113.266 177.021 112.706 177.049 112.123C177.078 111.541 176.933 110.963 176.632 110.463C176.331 109.963 175.888 109.562 175.359 109.313C174.83 109.064 174.239 108.976 173.66 109.062C173.081 109.147 172.54 109.402 172.106 109.794C171.673 110.185 171.365 110.696 171.223 111.262C171.169 111.488 171.143 111.721 171.146 111.954L69.253 148.88L172.782 87.4498C173.081 87.6586 173.416 87.8114 173.77 87.9006C174.338 88.0428 174.936 88.0138 175.487 87.8175C176.039 87.6212 176.52 87.2663 176.869 86.7978C177.218 86.3293 177.42 85.7681 177.449 85.1853C177.478 84.6024 177.332 84.0242 177.031 83.5236C176.731 83.023 176.287 82.6225 175.758 82.3729C175.228 82.1233 174.637 82.0357 174.057 82.1212C173.478 82.2068 172.937 82.4616 172.503 82.8534C172.069 83.2453 171.761 83.7566 171.619 84.3226C171.559 84.5742 171.533 84.8327 171.542 85.0912L69.4325 145.686L173.356 57.6791C173.484 57.7346 173.617 57.7804 173.752 57.8161C174.32 57.9582 174.917 57.9293 175.469 57.733C176.021 57.5366 176.501 57.1818 176.85 56.7132C177.2 56.2447 177.401 55.6835 177.43 55.1007C177.459 54.5179 177.314 53.9396 177.013 53.439C176.712 52.9384 176.269 52.5379 175.74 52.2883C175.21 52.0387 174.618 51.9511 174.039 52.0367C173.459 52.1222 172.918 52.377 172.484 52.7689C172.05 53.1607 171.743 53.672 171.601 54.238C171.482 54.709 171.486 55.202 171.611 55.6711L67.591 143.754L140.52 57.0621C140.711 57.1053 140.906 57.1279 141.102 57.1297C141.763 57.1306 142.405 56.9113 142.926 56.5067C143.447 56.1021 143.817 55.5355 143.977 54.8971C144.096 54.4388 144.103 53.9587 143.997 53.4973C143.89 53.0359 143.674 52.6068 143.366 52.2463C143.059 51.8857 142.668 51.6042 142.228 51.4256C141.788 51.2469 141.311 51.1765 140.838 51.2201C140.365 51.2637 139.909 51.42 139.51 51.676C139.11 51.932 138.778 52.28 138.542 52.6907C138.305 53.1015 138.172 53.5628 138.152 54.0358C138.133 54.5087 138.227 54.9795 138.429 55.4082L63.5836 144.388L110.104 57.1279C110.123 57.1297 110.142 57.1297 110.161 57.1279C110.821 57.1287 111.463 56.9093 111.983 56.5047C112.504 56.1001 112.874 55.5335 113.034 54.8952C113.177 54.3288 113.149 53.7326 112.951 53.1824C112.754 52.6323 112.397 52.1529 111.926 51.8051C111.455 51.4573 110.891 51.2569 110.305 51.2292C109.719 51.2015 109.138 51.3477 108.636 51.6495C108.303 51.8482 108.011 52.1105 107.779 52.4214C107.547 52.7323 107.379 53.0857 107.285 53.4614C107.19 53.8371 107.17 54.2277 107.227 54.6109C107.284 54.9942 107.416 55.3625 107.616 55.6948C107.647 55.7445 107.682 55.7921 107.72 55.8372L107.744 55.8682L60.7049 144.052L83.9468 56.9909C84.547 56.8441 85.0852 56.512 85.4847 56.0422C85.8841 55.5724 86.1243 54.9889 86.171 54.3749C86.2176 53.761 86.0684 53.1481 85.7445 52.6237C85.4206 52.0993 84.9387 51.6903 84.3676 51.4551C83.7964 51.2199 83.1653 51.1705 82.5643 51.314C81.9633 51.4575 81.4232 51.7865 81.0211 52.2541C80.619 52.7216 80.3755 53.3038 80.3254 53.9175C80.2753 54.5312 80.421 55.1449 80.742 55.6711C80.9047 55.938 81.1102 56.1767 81.3503 56.3775L57.7731 144.747V56.7445C58.15 56.5615 58.4826 56.2994 58.748 55.976C59.0134 55.6527 59.2053 55.2758 59.3105 54.8715C59.4461 54.3325 59.4262 53.7662 59.2531 53.238C59.08 52.7097 58.7607 52.2408 58.3321 51.8853C57.9034 51.5297 57.3826 51.302 56.8298 51.2282C56.2769 51.1544 55.7144 51.2376 55.2069 51.4682C54.6994 51.6988 54.2675 52.0674 53.961 52.5317C53.6544 52.996 53.4857 53.537 53.4741 54.0926C53.4625 54.6482 53.6086 55.1958 53.8955 55.6723C54.1824 56.1489 54.5985 56.5351 55.096 56.7865V153.064L2.66794 135.408V45.8626L70.783 2.65614H120.91L55.7099 44.0133L55.653 44.0516Z" fill="#F5B57B"/>
</svg>
