<svg width="180" height="180" viewBox="0 0 180 180" fill="none" xmlns="http://www.w3.org/2000/svg">
<path d="M23.8114 132.343C19.1024 132.343 14.4991 133.739 10.5836 136.355C6.66804 138.971 3.61608 142.69 1.81355 147.04C0.0110164 151.391 -0.46115 156.178 0.456778 160.797C1.37471 165.416 3.64149 169.659 6.97053 172.99C10.2996 176.32 14.5414 178.589 19.1596 179.509C23.7779 180.429 28.5652 179.959 32.9164 178.158C37.2675 176.358 40.9871 173.307 43.6047 169.392C46.2224 165.478 47.6207 160.875 47.6227 156.166C47.6186 149.851 45.1089 143.795 40.6446 139.329C36.1803 134.862 30.1262 132.35 23.8114 132.343ZM23.8114 177.446C18.604 177.444 13.5797 175.524 9.69787 172.053L24.0996 157.65C24.1393 157.662 24.1773 157.683 24.217 157.694C24.7959 157.846 25.4089 157.801 25.9598 157.567C26.5107 157.333 26.9685 156.923 27.2612 156.401C27.554 155.879 27.6652 155.275 27.5774 154.682C27.4897 154.09 27.208 153.544 26.7764 153.129C26.3448 152.715 25.7879 152.455 25.1928 152.391C24.5977 152.327 23.9982 152.462 23.4882 152.775C22.9783 153.089 22.5867 153.562 22.375 154.122C22.1632 154.682 22.1433 155.296 22.3182 155.869L7.91813 170.27C4.69591 166.626 2.82048 161.987 2.60469 157.128C2.3889 152.269 3.84579 147.482 6.73236 143.567C9.61894 139.652 13.7606 136.845 18.4664 135.615C23.1722 134.385 28.1576 134.805 32.5908 136.807C37.024 138.808 40.6369 142.269 42.8269 146.612C45.0169 150.955 45.6515 155.918 44.6247 160.673C43.598 165.427 40.972 169.686 37.185 172.739C33.3979 175.791 28.6788 177.452 23.8148 177.446H23.8114Z" fill="#F5B57B"/>
<path d="M71.0889 72.6356C63.9386 72.6303 56.9466 74.7414 50.9939 78.703C45.0412 82.6646 40.3942 88.2995 37.6381 94.8976C34.8821 101.496 34.1404 108.762 35.5065 115.781C36.8726 122.8 40.2853 129.258 45.3148 134.34C45.3554 134.391 45.3992 134.439 45.446 134.484C45.4805 134.52 45.5185 134.553 45.5548 134.587C45.5853 134.619 45.6176 134.65 45.6515 134.679C49.8872 138.856 55.0863 141.927 60.7897 143.619C66.4932 145.311 72.5254 145.573 78.3541 144.382C84.1827 143.19 89.6284 140.582 94.2104 136.788C98.7924 132.993 102.37 128.129 104.627 122.624C106.884 117.119 107.751 111.144 107.151 105.224C106.552 99.3053 104.504 93.6247 101.19 88.6842C97.8753 83.7438 93.3954 79.6954 88.1457 76.8965C82.896 74.0976 77.038 72.6342 71.0889 72.6356ZM71.0889 142.616C62.8197 142.613 54.8426 139.558 48.6879 134.035L89.2918 117.405C89.752 117.782 90.3247 117.994 90.9192 118.008C91.5136 118.022 92.0958 117.838 92.5732 117.483C93.0507 117.128 93.3961 116.625 93.5546 116.051C93.7131 115.478 93.6756 114.869 93.4481 114.319C93.2206 113.77 92.8161 113.312 92.2988 113.019C91.7815 112.725 91.1811 112.613 90.5928 112.7C90.0045 112.787 89.4621 113.068 89.0516 113.498C88.641 113.928 88.386 114.483 88.3268 115.075L51.6759 130.085L77.034 104.726C77.6044 104.897 78.2157 104.873 78.7709 104.658C79.3261 104.442 79.7933 104.047 80.0984 103.535C80.4034 103.024 80.5289 102.425 80.4547 101.834C80.3806 101.243 80.1112 100.694 79.6892 100.273C79.2672 99.8529 78.7169 99.5856 78.1257 99.5137C77.5344 99.4419 76.9361 99.5696 76.4257 99.8767C75.9154 100.184 75.5223 100.653 75.3088 101.209C75.0953 101.765 75.0736 102.376 75.2473 102.946L49.8928 128.302L64.9108 91.6352C65.2966 91.6023 65.6704 91.4844 66.0052 91.2899C66.5387 91.0153 66.9727 90.5804 67.2461 90.0462C67.5195 89.5121 67.6186 88.9057 67.5294 88.3123C67.4402 87.719 67.1672 87.1685 66.7488 86.7384C66.3305 86.3082 65.7878 86.0201 65.1971 85.9146C64.6065 85.809 63.9976 85.8912 63.4561 86.1498C62.9147 86.4083 62.4679 86.8301 62.1786 87.3558C61.8894 87.8816 61.7723 88.4847 61.8438 89.0805C61.9152 89.6763 62.1716 90.2347 62.577 90.6771L45.938 131.29C40.8217 125.524 37.8378 118.178 37.4842 110.478C37.1307 102.777 39.4289 95.1885 43.9953 88.9783C48.5617 82.768 55.1199 78.312 62.5753 76.3539C70.0306 74.3959 77.932 75.0545 84.9604 78.2196C91.9888 81.3847 97.719 86.8649 101.194 93.7454C104.67 100.626 105.68 108.49 104.057 116.026C102.434 123.562 98.2752 130.312 92.2752 135.152C86.2753 139.991 78.797 142.626 71.0889 142.616Z" fill="#F5B57B"/>
<path d="M134.591 7.87009e-06C125.634 -0.00526782 116.877 2.64197 109.423 7.60785C101.968 12.5737 96.1515 19.6358 92.7056 27.9036C89.2597 36.1713 88.3391 45.2743 90.0599 54.0645C91.7807 62.8548 96.0658 70.9387 102.375 77.2965C102.413 77.349 102.455 77.3981 102.501 77.4433C102.536 77.481 102.574 77.5162 102.615 77.5486C102.646 77.5728 102.672 77.6021 102.705 77.6245C108.002 82.8634 114.508 86.7169 121.648 88.8446C128.787 90.9724 136.341 91.3089 143.642 89.8243C150.943 88.3398 157.766 85.08 163.508 80.3329C169.25 75.5858 173.734 69.4975 176.565 62.6058C179.396 55.7142 180.486 48.2314 179.739 40.8185C178.992 33.4056 176.431 26.2907 172.282 20.1025C168.133 13.9142 162.524 8.84308 155.951 5.33706C149.377 1.83103 142.041 -0.00196383 134.591 7.87009e-06ZM134.591 88.2343C124.021 88.2417 113.824 84.3264 105.976 77.2465L163.566 63.3205C163.741 63.5232 163.947 63.6979 164.175 63.8384C164.666 64.1457 165.242 64.2894 165.82 64.249C166.397 64.2085 166.947 63.9859 167.391 63.6132C167.834 63.2405 168.148 62.7369 168.287 62.1746C168.427 61.6123 168.384 61.0204 168.166 60.4838C167.948 59.9472 167.565 59.4937 167.073 59.1882C166.581 58.8828 166.004 58.7412 165.427 58.7838C164.849 58.8264 164.3 59.051 163.858 59.4254C163.416 59.7998 163.104 60.3046 162.967 60.8674L112.444 73.0827L151.924 51.6214C151.964 51.6473 151.997 51.6801 152.038 51.7042C152.339 51.885 152.673 52.0047 153.021 52.0563C153.369 52.1079 153.723 52.0905 154.064 52.005C154.405 51.9196 154.726 51.7678 155.008 51.5583C155.291 51.3488 155.529 51.0857 155.71 50.7841C156.073 50.1745 156.18 49.4459 156.008 48.7575C155.835 48.069 155.397 47.4769 154.79 47.1106C154.385 46.8655 153.923 46.7324 153.451 46.7249C152.978 46.7174 152.512 46.8359 152.1 47.068C151.689 47.3001 151.346 47.6376 151.108 48.0458C150.87 48.4541 150.744 48.9184 150.745 49.391L110.447 71.3046L141.215 40.5334C141.256 40.5472 141.294 40.5662 141.335 40.5765C141.913 40.7276 142.525 40.6826 143.074 40.4488C143.623 40.215 144.08 39.8056 144.372 39.2846C144.663 38.7636 144.774 38.1605 144.687 37.5698C144.599 36.9791 144.318 36.4342 143.887 36.0205C143.457 35.6067 142.901 35.3475 142.307 35.2834C141.714 35.2194 141.115 35.354 140.606 35.6664C140.098 35.9787 139.707 36.4511 139.495 37.0094C139.283 37.5678 139.263 38.1806 139.437 38.7519L108.669 69.5213L130.572 29.2227C131.162 29.2192 131.734 29.0208 132.2 28.6584C132.665 28.296 132.997 27.7899 133.145 27.219C133.293 26.648 133.248 26.0441 133.017 25.5015C132.786 24.9588 132.382 24.5077 131.868 24.2184C131.354 23.9291 130.759 23.8179 130.175 23.9021C129.591 23.9862 129.052 24.261 128.641 24.6837C128.229 25.1063 127.969 25.6532 127.901 26.239C127.832 26.8248 127.96 27.4168 128.263 27.9228C128.287 27.9642 128.323 27.9936 128.349 28.0316L106.887 67.5188L119.098 17.004C119.346 16.941 119.584 16.8434 119.804 16.714C120.412 16.3473 120.85 15.7549 121.023 15.0662C121.195 14.3775 121.088 13.6486 120.724 13.0387C120.357 12.4358 119.765 12.0027 119.08 11.8337C118.394 11.6647 117.669 11.7735 117.063 12.1365C116.457 12.4994 116.019 13.0871 115.845 13.7715C115.67 14.4559 115.773 15.1815 116.131 15.7904C116.272 16.0188 116.447 16.2248 116.649 16.4015L102.723 73.9942C96.1749 66.6896 92.3322 57.3583 91.8378 47.5603C91.3434 37.7624 94.2273 28.0916 100.007 20.1648C105.787 12.2381 114.113 6.53577 123.592 4.01123C133.072 1.48669 143.131 2.29293 152.087 6.29519C161.044 10.2974 168.355 17.2531 172.799 25.9993C177.242 34.7456 178.549 44.7522 176.501 54.3463C174.452 63.9405 169.172 72.5405 161.544 78.7088C153.916 84.8771 144.401 88.2396 134.591 88.2343Z" fill="#F5B57B"/>
</svg>
