<svg width="130" height="121" viewBox="0 0 130 121" fill="none" xmlns="http://www.w3.org/2000/svg">
<mask id="path-1-outside-1_757_315" maskUnits="userSpaceOnUse" x="-0.5" y="0.00683594" width="131" height="121" fill="black">
<rect fill="white" x="-0.5" y="0.00683594" width="131" height="121"/>
<path d="M65.3024 105.698C66.7655 104.756 85.3007 92.6544 102.098 73.2105C119.522 53.0456 128.927 32.1042 129.026 31.8935C129.07 31.7825 129.048 31.6495 128.96 31.5718C128.872 31.4942 128.74 31.4831 128.63 31.5496C128.443 31.6716 109.149 43.9391 91.7359 64.1041C77.6776 80.3758 68.8445 97.1355 65.9074 103.125L74.1466 67.5426C74.1466 67.5426 74.1686 67.5426 74.1796 67.5426C74.9056 67.5426 75.4886 66.9658 75.4996 66.2337C75.4996 65.5017 74.9276 64.9138 74.2016 64.9027C73.4756 64.9027 72.8925 65.4795 72.8815 66.2115C72.8815 66.7328 73.1786 67.1765 73.6186 67.3984L65.3135 103.258V63.0171C66.6995 61.9745 79.9107 51.77 89.7448 35.7313C100.074 18.8717 103.011 1.513 103.033 1.33553C103.055 1.22461 103 1.1137 102.901 1.05824C102.802 1.00278 102.681 1.00279 102.593 1.06934C102.45 1.16916 88.3698 11.5844 78.0406 28.4439C70.1315 41.3437 66.5675 54.5318 65.3135 60.0999V27.7229L77.0726 3.86443C77.0726 3.86443 77.1606 3.89774 77.2046 3.89774C77.9307 3.89774 78.5136 3.32097 78.5246 2.58891C78.5246 1.85685 77.9526 1.26897 77.2266 1.25788C76.5006 1.25788 75.9176 1.83465 75.9066 2.56671C75.9066 3.04365 76.1706 3.45406 76.5446 3.68699L65.3135 26.4807V1.25788H64.7634V26.5916L53.4773 3.67589C53.8623 3.44296 54.1262 3.03255 54.1152 2.5556C54.1152 1.82354 53.5213 1.23569 52.7952 1.24678C52.0692 1.24678 51.4862 1.84575 51.4972 2.57781C51.4972 3.30987 52.0912 3.89773 52.8172 3.88663C52.8612 3.88663 52.9052 3.86449 52.9492 3.85339L64.7304 27.7673H64.7634V60.344C63.5644 54.9423 60.0003 41.5323 51.9812 28.4328C41.652 11.5733 27.5608 1.15806 27.4288 1.05824C27.3408 0.991685 27.2198 0.991674 27.1208 1.04713C27.0218 1.10259 26.9778 1.21351 26.9888 1.32443C27.0218 1.5019 29.9479 18.8606 40.277 35.7201C50.2432 51.9918 63.7074 62.2518 64.7634 63.0393V103.491L56.3923 67.3762C56.8213 67.1543 57.1293 66.7106 57.1293 66.1893C57.1293 65.4573 56.5353 64.8694 55.8093 64.8805C55.0833 64.8805 54.5003 65.4795 54.5113 66.2115C54.5113 66.9436 55.1053 67.5315 55.8313 67.5204C55.8423 67.5204 55.8533 67.5204 55.8643 67.5204L64.1034 103.103C61.1664 97.1244 52.3222 80.3536 38.264 64.0819C20.8397 43.917 1.55642 31.6494 1.36942 31.5274C1.27042 31.4609 1.1384 31.472 1.0394 31.5496C0.951394 31.6273 0.918396 31.7603 0.973397 31.8713C1.0614 32.082 10.4776 53.0233 27.9018 73.1883C45.0181 92.9982 63.9274 105.188 64.7524 105.721V119.452H1.07239V120.007H128.894V119.452H65.3024V105.687V105.698ZM101.691 72.8444C87.3028 89.4932 71.6495 100.74 66.5894 104.179L127.662 33.4907C124.978 39.0144 116.068 56.1956 101.68 72.8444H101.691ZM92.1539 64.4701C106.542 47.8213 122.206 36.5631 127.255 33.1357L66.1715 103.824C68.8555 98.3002 77.7546 81.13 92.1539 64.4701ZM89.2718 35.4429C80.7467 49.352 69.6585 58.8466 66.0504 61.7416L102.197 2.74421C101.251 7.29186 97.797 21.5448 89.2718 35.454V35.4429ZM78.5137 28.7434C87.0388 14.8343 98.127 5.33968 101.735 2.44471L65.5885 61.4421C66.5345 56.8944 69.9885 42.6415 78.5137 28.7323V28.7434ZM51.5082 28.7434C60.0333 42.6526 63.4874 56.9055 64.4334 61.4532L28.2869 2.44471C31.8949 5.32858 42.9831 14.8232 51.5082 28.7434ZM40.75 35.4429C32.2249 21.5337 28.7708 7.28075 27.8248 2.73311L63.9714 61.7305C60.3634 58.8466 49.2752 49.352 40.75 35.4318V35.4429ZM37.868 64.4701C52.2562 81.1189 61.1664 98.3002 63.8504 103.824L2.76643 33.1357C7.82651 36.5742 23.4798 47.8213 37.868 64.4701ZM28.3308 72.8444C13.9426 56.1956 5.03246 39.0144 2.34842 33.4907L63.4324 104.179C58.3723 100.74 42.7191 89.4932 28.3308 72.8444Z"/>
<path d="M129.225 89.6929C129.082 89.6929 114.605 90.059 99.6781 96.6031C84.7509 103.158 74.6197 113.585 74.5207 113.696C74.4437 113.773 74.4217 113.895 74.4657 113.995C74.5097 114.095 74.6087 114.161 74.7187 114.161C74.8617 114.161 89.3379 113.795 104.265 107.251C119.192 100.696 129.324 90.2697 129.423 90.1588C129.5 90.0811 129.522 89.9591 129.478 89.8593C129.434 89.7595 129.357 89.6929 129.225 89.6929ZM99.8871 97.1133C111.932 91.8336 123.658 90.6024 127.718 90.3251L75.9837 113.03C78.9538 110.224 87.8419 102.404 99.8871 97.1244V97.1133ZM104.045 106.741C92 112.021 80.2738 113.252 76.2147 113.529L127.949 90.8243C124.978 93.6305 116.09 101.45 104.045 106.73V106.741Z"/>
<path d="M95.696 91.1571L126.563 70.2046C126.794 70.4376 127.113 70.5818 127.465 70.5818C128.191 70.5818 128.774 70.005 128.785 69.2729C128.785 68.5409 128.213 67.953 127.487 67.9419C126.761 67.9419 126.177 68.5187 126.166 69.2507C126.166 69.4282 126.199 69.5835 126.265 69.7388L95.399 90.6912L95.707 91.146L95.696 91.1571Z"/>
<path d="M128.751 8.86683C128.641 8.9112 117.333 13.2814 108.214 22.9868C99.106 32.6921 95.3989 44.3163 95.3549 44.4383C95.3219 44.5381 95.3549 44.649 95.4319 44.7267C95.4869 44.771 95.5529 44.8043 95.6189 44.8043C95.6519 44.8043 95.6849 44.8043 95.7179 44.7821C95.8279 44.7378 107.136 40.3676 116.255 30.6623C125.363 20.9569 129.07 9.33269 129.114 9.22177C129.147 9.12195 129.114 9.01102 129.037 8.93338C128.96 8.85573 128.85 8.83356 128.751 8.87793V8.86683ZM108.621 23.3638C115.925 15.5885 124.626 11.2738 127.75 9.88732L96.3229 43.3624C97.5219 40.1458 101.317 31.1392 108.621 23.3638ZM115.859 30.274C108.555 38.0494 99.854 42.3641 96.7299 43.7506L128.157 10.2755C126.958 13.4921 123.163 22.4987 115.859 30.274Z"/>
<path d="M2.51342 67.9419C1.78741 67.9419 1.20441 68.5409 1.21541 69.2729C1.21541 70.005 1.80943 70.5929 2.53544 70.5818C2.88745 70.5818 3.20646 70.4376 3.43746 70.2046L34.304 91.1571L34.612 90.7023L3.74547 69.7499C3.80047 69.5946 3.84446 69.4282 3.84446 69.2618C3.84446 68.5298 3.25044 67.9419 2.52443 67.953L2.51342 67.9419Z"/>
<path d="M55.2813 114.161C55.3913 114.161 55.4903 114.095 55.5343 113.995C55.5783 113.895 55.5563 113.773 55.4793 113.696C55.3803 113.596 45.2491 103.158 30.3219 96.6031C15.3947 90.0479 0.918439 89.6929 0.775436 89.6929C0.665435 89.6929 0.566421 89.7595 0.52242 89.8593C0.47842 89.9591 0.50044 90.0811 0.577441 90.1588C0.676443 90.2586 10.8076 100.696 25.7348 107.251C40.6621 113.806 55.1383 114.161 55.2813 114.161ZM2.05146 90.8243L53.7853 113.529C49.7262 113.252 37.989 112.021 25.9438 106.741C13.8987 101.461 5.02151 93.6416 2.05146 90.8354V90.8243ZM54.0053 113.019L2.27144 90.314C6.33051 90.5913 18.0677 91.8225 30.1019 97.1022C42.1471 102.382 51.0242 110.202 54.0053 113.008V113.019Z"/>
<path d="M13.7447 30.6513C22.8528 40.3566 34.161 44.7268 34.282 44.7711C34.315 44.7822 34.348 44.7933 34.381 44.7933C34.447 44.7933 34.513 44.7712 34.568 44.7157C34.645 44.6381 34.678 44.5271 34.645 44.4273C34.612 44.3164 30.905 32.6922 21.7858 22.9758C12.6777 13.2704 1.36948 8.90021 1.24848 8.85584C1.14948 8.82257 1.0395 8.8448 0.962495 8.91135C0.885494 8.989 0.852485 9.09986 0.885486 9.19968C0.918486 9.3106 4.62555 20.9348 13.7447 30.6402V30.6513ZM14.1407 30.2741C6.83657 22.4988 3.05252 13.4923 1.8425 10.2756L33.27 43.7507C30.146 42.3642 21.4338 38.0495 14.1407 30.2741ZM21.3788 23.364C28.6829 31.1393 32.467 40.1459 33.677 43.3625L2.2495 9.88744C5.37355 11.2739 14.0857 15.5886 21.3788 23.364Z"/>
</mask>
<path d="M65.3024 105.698C66.7655 104.756 85.3007 92.6544 102.098 73.2105C119.522 53.0456 128.927 32.1042 129.026 31.8935C129.07 31.7825 129.048 31.6495 128.96 31.5718C128.872 31.4942 128.74 31.4831 128.63 31.5496C128.443 31.6716 109.149 43.9391 91.7359 64.1041C77.6776 80.3758 68.8445 97.1355 65.9074 103.125L74.1466 67.5426C74.1466 67.5426 74.1686 67.5426 74.1796 67.5426C74.9056 67.5426 75.4886 66.9658 75.4996 66.2337C75.4996 65.5017 74.9276 64.9138 74.2016 64.9027C73.4756 64.9027 72.8925 65.4795 72.8815 66.2115C72.8815 66.7328 73.1786 67.1765 73.6186 67.3984L65.3135 103.258V63.0171C66.6995 61.9745 79.9107 51.77 89.7448 35.7313C100.074 18.8717 103.011 1.513 103.033 1.33553C103.055 1.22461 103 1.1137 102.901 1.05824C102.802 1.00278 102.681 1.00279 102.593 1.06934C102.45 1.16916 88.3698 11.5844 78.0406 28.4439C70.1315 41.3437 66.5675 54.5318 65.3135 60.0999V27.7229L77.0726 3.86443C77.0726 3.86443 77.1606 3.89774 77.2046 3.89774C77.9307 3.89774 78.5136 3.32097 78.5246 2.58891C78.5246 1.85685 77.9526 1.26897 77.2266 1.25788C76.5006 1.25788 75.9176 1.83465 75.9066 2.56671C75.9066 3.04365 76.1706 3.45406 76.5446 3.68699L65.3135 26.4807V1.25788H64.7634V26.5916L53.4773 3.67589C53.8623 3.44296 54.1262 3.03255 54.1152 2.5556C54.1152 1.82354 53.5213 1.23569 52.7952 1.24678C52.0692 1.24678 51.4862 1.84575 51.4972 2.57781C51.4972 3.30987 52.0912 3.89773 52.8172 3.88663C52.8612 3.88663 52.9052 3.86449 52.9492 3.85339L64.7304 27.7673H64.7634V60.344C63.5644 54.9423 60.0003 41.5323 51.9812 28.4328C41.652 11.5733 27.5608 1.15806 27.4288 1.05824C27.3408 0.991685 27.2198 0.991674 27.1208 1.04713C27.0218 1.10259 26.9778 1.21351 26.9888 1.32443C27.0218 1.5019 29.9479 18.8606 40.277 35.7201C50.2432 51.9918 63.7074 62.2518 64.7634 63.0393V103.491L56.3923 67.3762C56.8213 67.1543 57.1293 66.7106 57.1293 66.1893C57.1293 65.4573 56.5353 64.8694 55.8093 64.8805C55.0833 64.8805 54.5003 65.4795 54.5113 66.2115C54.5113 66.9436 55.1053 67.5315 55.8313 67.5204C55.8423 67.5204 55.8533 67.5204 55.8643 67.5204L64.1034 103.103C61.1664 97.1244 52.3222 80.3536 38.264 64.0819C20.8397 43.917 1.55642 31.6494 1.36942 31.5274C1.27042 31.4609 1.1384 31.472 1.0394 31.5496C0.951394 31.6273 0.918396 31.7603 0.973397 31.8713C1.0614 32.082 10.4776 53.0233 27.9018 73.1883C45.0181 92.9982 63.9274 105.188 64.7524 105.721V119.452H1.07239V120.007H128.894V119.452H65.3024V105.687V105.698ZM101.691 72.8444C87.3028 89.4932 71.6495 100.74 66.5894 104.179L127.662 33.4907C124.978 39.0144 116.068 56.1956 101.68 72.8444H101.691ZM92.1539 64.4701C106.542 47.8213 122.206 36.5631 127.255 33.1357L66.1715 103.824C68.8555 98.3002 77.7546 81.13 92.1539 64.4701ZM89.2718 35.4429C80.7467 49.352 69.6585 58.8466 66.0504 61.7416L102.197 2.74421C101.251 7.29186 97.797 21.5448 89.2718 35.454V35.4429ZM78.5137 28.7434C87.0388 14.8343 98.127 5.33968 101.735 2.44471L65.5885 61.4421C66.5345 56.8944 69.9885 42.6415 78.5137 28.7323V28.7434ZM51.5082 28.7434C60.0333 42.6526 63.4874 56.9055 64.4334 61.4532L28.2869 2.44471C31.8949 5.32858 42.9831 14.8232 51.5082 28.7434ZM40.75 35.4429C32.2249 21.5337 28.7708 7.28075 27.8248 2.73311L63.9714 61.7305C60.3634 58.8466 49.2752 49.352 40.75 35.4318V35.4429ZM37.868 64.4701C52.2562 81.1189 61.1664 98.3002 63.8504 103.824L2.76643 33.1357C7.82651 36.5742 23.4798 47.8213 37.868 64.4701ZM28.3308 72.8444C13.9426 56.1956 5.03246 39.0144 2.34842 33.4907L63.4324 104.179C58.3723 100.74 42.7191 89.4932 28.3308 72.8444Z" fill="#F5B57B"/>
<path d="M129.225 89.6929C129.082 89.6929 114.605 90.059 99.6781 96.6031C84.7509 103.158 74.6197 113.585 74.5207 113.696C74.4437 113.773 74.4217 113.895 74.4657 113.995C74.5097 114.095 74.6087 114.161 74.7187 114.161C74.8617 114.161 89.3379 113.795 104.265 107.251C119.192 100.696 129.324 90.2697 129.423 90.1588C129.5 90.0811 129.522 89.9591 129.478 89.8593C129.434 89.7595 129.357 89.6929 129.225 89.6929ZM99.8871 97.1133C111.932 91.8336 123.658 90.6024 127.718 90.3251L75.9837 113.03C78.9538 110.224 87.8419 102.404 99.8871 97.1244V97.1133ZM104.045 106.741C92 112.021 80.2738 113.252 76.2147 113.529L127.949 90.8243C124.978 93.6305 116.09 101.45 104.045 106.73V106.741Z" fill="#F5B57B"/>
<path d="M95.696 91.1571L126.563 70.2046C126.794 70.4376 127.113 70.5818 127.465 70.5818C128.191 70.5818 128.774 70.005 128.785 69.2729C128.785 68.5409 128.213 67.953 127.487 67.9419C126.761 67.9419 126.177 68.5187 126.166 69.2507C126.166 69.4282 126.199 69.5835 126.265 69.7388L95.399 90.6912L95.707 91.146L95.696 91.1571Z" fill="#F5B57B"/>
<path d="M128.751 8.86683C128.641 8.9112 117.333 13.2814 108.214 22.9868C99.106 32.6921 95.3989 44.3163 95.3549 44.4383C95.3219 44.5381 95.3549 44.649 95.4319 44.7267C95.4869 44.771 95.5529 44.8043 95.6189 44.8043C95.6519 44.8043 95.6849 44.8043 95.7179 44.7821C95.8279 44.7378 107.136 40.3676 116.255 30.6623C125.363 20.9569 129.07 9.33269 129.114 9.22177C129.147 9.12195 129.114 9.01102 129.037 8.93338C128.96 8.85573 128.85 8.83356 128.751 8.87793V8.86683ZM108.621 23.3638C115.925 15.5885 124.626 11.2738 127.75 9.88732L96.3229 43.3624C97.5219 40.1458 101.317 31.1392 108.621 23.3638ZM115.859 30.274C108.555 38.0494 99.854 42.3641 96.7299 43.7506L128.157 10.2755C126.958 13.4921 123.163 22.4987 115.859 30.274Z" fill="#F5B57B"/>
<path d="M2.51342 67.9419C1.78741 67.9419 1.20441 68.5409 1.21541 69.2729C1.21541 70.005 1.80943 70.5929 2.53544 70.5818C2.88745 70.5818 3.20646 70.4376 3.43746 70.2046L34.304 91.1571L34.612 90.7023L3.74547 69.7499C3.80047 69.5946 3.84446 69.4282 3.84446 69.2618C3.84446 68.5298 3.25044 67.9419 2.52443 67.953L2.51342 67.9419Z" fill="#F5B57B"/>
<path d="M55.2813 114.161C55.3913 114.161 55.4903 114.095 55.5343 113.995C55.5783 113.895 55.5563 113.773 55.4793 113.696C55.3803 113.596 45.2491 103.158 30.3219 96.6031C15.3947 90.0479 0.918439 89.6929 0.775436 89.6929C0.665435 89.6929 0.566421 89.7595 0.52242 89.8593C0.47842 89.9591 0.50044 90.0811 0.577441 90.1588C0.676443 90.2586 10.8076 100.696 25.7348 107.251C40.6621 113.806 55.1383 114.161 55.2813 114.161ZM2.05146 90.8243L53.7853 113.529C49.7262 113.252 37.989 112.021 25.9438 106.741C13.8987 101.461 5.02151 93.6416 2.05146 90.8354V90.8243ZM54.0053 113.019L2.27144 90.314C6.33051 90.5913 18.0677 91.8225 30.1019 97.1022C42.1471 102.382 51.0242 110.202 54.0053 113.008V113.019Z" fill="#F5B57B"/>
<path d="M13.7447 30.6513C22.8528 40.3566 34.161 44.7268 34.282 44.7711C34.315 44.7822 34.348 44.7933 34.381 44.7933C34.447 44.7933 34.513 44.7712 34.568 44.7157C34.645 44.6381 34.678 44.5271 34.645 44.4273C34.612 44.3164 30.905 32.6922 21.7858 22.9758C12.6777 13.2704 1.36948 8.90021 1.24848 8.85584C1.14948 8.82257 1.0395 8.8448 0.962495 8.91135C0.885494 8.989 0.852485 9.09986 0.885486 9.19968C0.918486 9.3106 4.62555 20.9348 13.7447 30.6402V30.6513ZM14.1407 30.2741C6.83657 22.4988 3.05252 13.4923 1.8425 10.2756L33.27 43.7507C30.146 42.3642 21.4338 38.0495 14.1407 30.2741ZM21.3788 23.364C28.6829 31.1393 32.467 40.1459 33.677 43.3625L2.2495 9.88744C5.37355 11.2739 14.0857 15.5886 21.3788 23.364Z" fill="#F5B57B"/>
<path d="M65.3024 105.698C66.7655 104.756 85.3007 92.6544 102.098 73.2105C119.522 53.0456 128.927 32.1042 129.026 31.8935C129.07 31.7825 129.048 31.6495 128.96 31.5718C128.872 31.4942 128.74 31.4831 128.63 31.5496C128.443 31.6716 109.149 43.9391 91.7359 64.1041C77.6776 80.3758 68.8445 97.1355 65.9074 103.125L74.1466 67.5426C74.1466 67.5426 74.1686 67.5426 74.1796 67.5426C74.9056 67.5426 75.4886 66.9658 75.4996 66.2337C75.4996 65.5017 74.9276 64.9138 74.2016 64.9027C73.4756 64.9027 72.8925 65.4795 72.8815 66.2115C72.8815 66.7328 73.1786 67.1765 73.6186 67.3984L65.3135 103.258V63.0171C66.6995 61.9745 79.9107 51.77 89.7448 35.7313C100.074 18.8717 103.011 1.513 103.033 1.33553C103.055 1.22461 103 1.1137 102.901 1.05824C102.802 1.00278 102.681 1.00279 102.593 1.06934C102.45 1.16916 88.3698 11.5844 78.0406 28.4439C70.1315 41.3437 66.5675 54.5318 65.3135 60.0999V27.7229L77.0726 3.86443C77.0726 3.86443 77.1606 3.89774 77.2046 3.89774C77.9307 3.89774 78.5136 3.32097 78.5246 2.58891C78.5246 1.85685 77.9526 1.26897 77.2266 1.25788C76.5006 1.25788 75.9176 1.83465 75.9066 2.56671C75.9066 3.04365 76.1706 3.45406 76.5446 3.68699L65.3135 26.4807V1.25788H64.7634V26.5916L53.4773 3.67589C53.8623 3.44296 54.1262 3.03255 54.1152 2.5556C54.1152 1.82354 53.5213 1.23569 52.7952 1.24678C52.0692 1.24678 51.4862 1.84575 51.4972 2.57781C51.4972 3.30987 52.0912 3.89773 52.8172 3.88663C52.8612 3.88663 52.9052 3.86449 52.9492 3.85339L64.7304 27.7673H64.7634V60.344C63.5644 54.9423 60.0003 41.5323 51.9812 28.4328C41.652 11.5733 27.5608 1.15806 27.4288 1.05824C27.3408 0.991685 27.2198 0.991674 27.1208 1.04713C27.0218 1.10259 26.9778 1.21351 26.9888 1.32443C27.0218 1.5019 29.9479 18.8606 40.277 35.7201C50.2432 51.9918 63.7074 62.2518 64.7634 63.0393V103.491L56.3923 67.3762C56.8213 67.1543 57.1293 66.7106 57.1293 66.1893C57.1293 65.4573 56.5353 64.8694 55.8093 64.8805C55.0833 64.8805 54.5003 65.4795 54.5113 66.2115C54.5113 66.9436 55.1053 67.5315 55.8313 67.5204C55.8423 67.5204 55.8533 67.5204 55.8643 67.5204L64.1034 103.103C61.1664 97.1244 52.3222 80.3536 38.264 64.0819C20.8397 43.917 1.55642 31.6494 1.36942 31.5274C1.27042 31.4609 1.1384 31.472 1.0394 31.5496C0.951394 31.6273 0.918396 31.7603 0.973397 31.8713C1.0614 32.082 10.4776 53.0233 27.9018 73.1883C45.0181 92.9982 63.9274 105.188 64.7524 105.721V119.452H1.07239V120.007H128.894V119.452H65.3024V105.687V105.698ZM101.691 72.8444C87.3028 89.4932 71.6495 100.74 66.5894 104.179L127.662 33.4907C124.978 39.0144 116.068 56.1956 101.68 72.8444H101.691ZM92.1539 64.4701C106.542 47.8213 122.206 36.5631 127.255 33.1357L66.1715 103.824C68.8555 98.3002 77.7546 81.13 92.1539 64.4701ZM89.2718 35.4429C80.7467 49.352 69.6585 58.8466 66.0504 61.7416L102.197 2.74421C101.251 7.29186 97.797 21.5448 89.2718 35.454V35.4429ZM78.5137 28.7434C87.0388 14.8343 98.127 5.33968 101.735 2.44471L65.5885 61.4421C66.5345 56.8944 69.9885 42.6415 78.5137 28.7323V28.7434ZM51.5082 28.7434C60.0333 42.6526 63.4874 56.9055 64.4334 61.4532L28.2869 2.44471C31.8949 5.32858 42.9831 14.8232 51.5082 28.7434ZM40.75 35.4429C32.2249 21.5337 28.7708 7.28075 27.8248 2.73311L63.9714 61.7305C60.3634 58.8466 49.2752 49.352 40.75 35.4318V35.4429ZM37.868 64.4701C52.2562 81.1189 61.1664 98.3002 63.8504 103.824L2.76643 33.1357C7.82651 36.5742 23.4798 47.8213 37.868 64.4701ZM28.3308 72.8444C13.9426 56.1956 5.03246 39.0144 2.34842 33.4907L63.4324 104.179C58.3723 100.74 42.7191 89.4932 28.3308 72.8444Z" stroke="#F5B57B" stroke-width="0.4" mask="url(#path-1-outside-1_757_315)"/>
<path d="M129.225 89.6929C129.082 89.6929 114.605 90.059 99.6781 96.6031C84.7509 103.158 74.6197 113.585 74.5207 113.696C74.4437 113.773 74.4217 113.895 74.4657 113.995C74.5097 114.095 74.6087 114.161 74.7187 114.161C74.8617 114.161 89.3379 113.795 104.265 107.251C119.192 100.696 129.324 90.2697 129.423 90.1588C129.5 90.0811 129.522 89.9591 129.478 89.8593C129.434 89.7595 129.357 89.6929 129.225 89.6929ZM99.8871 97.1133C111.932 91.8336 123.658 90.6024 127.718 90.3251L75.9837 113.03C78.9538 110.224 87.8419 102.404 99.8871 97.1244V97.1133ZM104.045 106.741C92 112.021 80.2738 113.252 76.2147 113.529L127.949 90.8243C124.978 93.6305 116.09 101.45 104.045 106.73V106.741Z" stroke="#F5B57B" stroke-width="0.4" mask="url(#path-1-outside-1_757_315)"/>
<path d="M95.696 91.1571L126.563 70.2046C126.794 70.4376 127.113 70.5818 127.465 70.5818C128.191 70.5818 128.774 70.005 128.785 69.2729C128.785 68.5409 128.213 67.953 127.487 67.9419C126.761 67.9419 126.177 68.5187 126.166 69.2507C126.166 69.4282 126.199 69.5835 126.265 69.7388L95.399 90.6912L95.707 91.146L95.696 91.1571Z" stroke="#F5B57B" stroke-width="0.4" mask="url(#path-1-outside-1_757_315)"/>
<path d="M128.751 8.86683C128.641 8.9112 117.333 13.2814 108.214 22.9868C99.106 32.6921 95.3989 44.3163 95.3549 44.4383C95.3219 44.5381 95.3549 44.649 95.4319 44.7267C95.4869 44.771 95.5529 44.8043 95.6189 44.8043C95.6519 44.8043 95.6849 44.8043 95.7179 44.7821C95.8279 44.7378 107.136 40.3676 116.255 30.6623C125.363 20.9569 129.07 9.33269 129.114 9.22177C129.147 9.12195 129.114 9.01102 129.037 8.93338C128.96 8.85573 128.85 8.83356 128.751 8.87793V8.86683ZM108.621 23.3638C115.925 15.5885 124.626 11.2738 127.75 9.88732L96.3229 43.3624C97.5219 40.1458 101.317 31.1392 108.621 23.3638ZM115.859 30.274C108.555 38.0494 99.854 42.3641 96.7299 43.7506L128.157 10.2755C126.958 13.4921 123.163 22.4987 115.859 30.274Z" stroke="#F5B57B" stroke-width="0.4" mask="url(#path-1-outside-1_757_315)"/>
<path d="M2.51342 67.9419C1.78741 67.9419 1.20441 68.5409 1.21541 69.2729C1.21541 70.005 1.80943 70.5929 2.53544 70.5818C2.88745 70.5818 3.20646 70.4376 3.43746 70.2046L34.304 91.1571L34.612 90.7023L3.74547 69.7499C3.80047 69.5946 3.84446 69.4282 3.84446 69.2618C3.84446 68.5298 3.25044 67.9419 2.52443 67.953L2.51342 67.9419Z" stroke="#F5B57B" stroke-width="0.4" mask="url(#path-1-outside-1_757_315)"/>
<path d="M55.2813 114.161C55.3913 114.161 55.4903 114.095 55.5343 113.995C55.5783 113.895 55.5563 113.773 55.4793 113.696C55.3803 113.596 45.2491 103.158 30.3219 96.6031C15.3947 90.0479 0.918439 89.6929 0.775436 89.6929C0.665435 89.6929 0.566421 89.7595 0.52242 89.8593C0.47842 89.9591 0.50044 90.0811 0.577441 90.1588C0.676443 90.2586 10.8076 100.696 25.7348 107.251C40.6621 113.806 55.1383 114.161 55.2813 114.161ZM2.05146 90.8243L53.7853 113.529C49.7262 113.252 37.989 112.021 25.9438 106.741C13.8987 101.461 5.02151 93.6416 2.05146 90.8354V90.8243ZM54.0053 113.019L2.27144 90.314C6.33051 90.5913 18.0677 91.8225 30.1019 97.1022C42.1471 102.382 51.0242 110.202 54.0053 113.008V113.019Z" stroke="#F5B57B" stroke-width="0.4" mask="url(#path-1-outside-1_757_315)"/>
<path d="M13.7447 30.6513C22.8528 40.3566 34.161 44.7268 34.282 44.7711C34.315 44.7822 34.348 44.7933 34.381 44.7933C34.447 44.7933 34.513 44.7712 34.568 44.7157C34.645 44.6381 34.678 44.5271 34.645 44.4273C34.612 44.3164 30.905 32.6922 21.7858 22.9758C12.6777 13.2704 1.36948 8.90021 1.24848 8.85584C1.14948 8.82257 1.0395 8.8448 0.962495 8.91135C0.885494 8.989 0.852485 9.09986 0.885486 9.19968C0.918486 9.3106 4.62555 20.9348 13.7447 30.6402V30.6513ZM14.1407 30.2741C6.83657 22.4988 3.05252 13.4923 1.8425 10.2756L33.27 43.7507C30.146 42.3642 21.4338 38.0495 14.1407 30.2741ZM21.3788 23.364C28.6829 31.1393 32.467 40.1459 33.677 43.3625L2.2495 9.88744C5.37355 11.2739 14.0857 15.5886 21.3788 23.364Z" stroke="#F5B57B" stroke-width="0.4" mask="url(#path-1-outside-1_757_315)"/>
</svg>
